<svg width="132" height="19" viewBox="0 0 132 19" fill="none" xmlns="http://www.w3.org/2000/svg">
<path d="M9.08334 18.7999C7.31668 18.7999 5.80001 18.4249 4.53334 17.6749C3.26668 16.9082 2.29168 15.8499 1.60834 14.4999C0.92501 13.1332 0.583344 11.5582 0.583344 9.77488C0.583344 7.99155 0.92501 6.41654 1.60834 5.04988C2.29168 3.68321 3.26668 2.61655 4.53334 1.84988C5.80001 1.08321 7.31668 0.699878 9.08334 0.699878C11.1833 0.699878 12.9 1.22488 14.2333 2.27488C15.5833 3.30821 16.425 4.76654 16.7583 6.64988H13.2333C13.0167 5.69988 12.55 4.95821 11.8333 4.42488C11.1333 3.87488 10.2 3.59988 9.03334 3.59988C7.41668 3.59988 6.15001 4.14988 5.23334 5.24988C4.31668 6.34988 3.85834 7.85821 3.85834 9.77488C3.85834 11.6915 4.31668 13.1999 5.23334 14.2999C6.15001 15.3832 7.41668 15.9249 9.03334 15.9249C10.2 15.9249 11.1333 15.6749 11.8333 15.1749C12.55 14.6582 13.0167 13.9499 13.2333 13.0499H16.7583C16.425 14.8499 15.5833 16.2582 14.2333 17.2749C12.9 18.2915 11.1833 18.7999 9.08334 18.7999Z" fill="#0A0D12"/>
<path d="M18.016 18.4999V0.499878H21.216V18.4999H18.016Z" fill="#0A0D12"/>
<path d="M28.6857 18.7999C27.519 18.7999 26.4774 18.5165 25.5607 17.9499C24.644 17.3832 23.919 16.6082 23.3857 15.6249C22.8524 14.6415 22.5857 13.5249 22.5857 12.2749C22.5857 11.0249 22.8524 9.91655 23.3857 8.94988C23.919 7.96655 24.644 7.19988 25.5607 6.64988C26.4774 6.08321 27.519 5.79988 28.6857 5.79988C29.619 5.79988 30.4357 5.97488 31.1357 6.32488C31.8357 6.67488 32.4024 7.16655 32.8357 7.79988L33.0107 6.09988H36.0357V18.4999H33.0357L32.8357 16.7249C32.4357 17.2749 31.9024 17.7582 31.2357 18.1749C30.5857 18.5915 29.7357 18.7999 28.6857 18.7999ZM29.3607 15.9999C30.394 15.9999 31.2357 15.6582 31.8857 14.9749C32.5524 14.2749 32.8857 13.3832 32.8857 12.2999C32.8857 11.2165 32.5524 10.3332 31.8857 9.64988C31.2357 8.94988 30.394 8.59988 29.3607 8.59988C28.344 8.59988 27.5024 8.94155 26.8357 9.62488C26.169 10.3082 25.8357 11.1915 25.8357 12.2749C25.8357 13.3582 26.169 14.2499 26.8357 14.9499C27.5024 15.6499 28.344 15.9999 29.3607 15.9999Z" fill="#0A0D12"/>
<path d="M37.7943 18.4999V6.09988H40.6193L40.8693 8.19988C41.2526 7.46654 41.8026 6.88321 42.5193 6.44988C43.2526 6.01655 44.1109 5.79988 45.0943 5.79988C46.6276 5.79988 47.8193 6.28321 48.6693 7.24988C49.5193 8.21655 49.9443 9.63321 49.9443 11.4999V18.4999H46.7443V11.7999C46.7443 10.7332 46.5276 9.91654 46.0943 9.34988C45.6609 8.78321 44.9859 8.49988 44.0693 8.49988C43.1693 8.49988 42.4276 8.81655 41.8443 9.44988C41.2776 10.0832 40.9943 10.9665 40.9943 12.0999V18.4999H37.7943Z" fill="#0A0D12"/>
<path d="M57.2042 18.7999C56.0376 18.7999 54.9959 18.5165 54.0792 17.9499C53.1626 17.3832 52.4376 16.6082 51.9042 15.6249C51.3709 14.6415 51.1042 13.5249 51.1042 12.2749C51.1042 11.0249 51.3709 9.91655 51.9042 8.94988C52.4376 7.96655 53.1626 7.19988 54.0792 6.64988C54.9959 6.08321 56.0376 5.79988 57.2042 5.79988C58.1376 5.79988 58.9542 5.97488 59.6542 6.32488C60.3542 6.67488 60.9209 7.16655 61.3542 7.79988V0.499878H64.5542V18.4999H61.7042L61.3542 16.7249C60.9542 17.2749 60.4209 17.7582 59.7542 18.1749C59.1042 18.5915 58.2542 18.7999 57.2042 18.7999ZM57.8792 15.9999C58.9126 15.9999 59.7542 15.6582 60.4042 14.9749C61.0709 14.2749 61.4042 13.3832 61.4042 12.2999C61.4042 11.2165 61.0709 10.3332 60.4042 9.64988C59.7542 8.94988 58.9126 8.59988 57.8792 8.59988C56.8626 8.59988 56.0209 8.94155 55.3542 9.62488C54.6876 10.3082 54.3542 11.1915 54.3542 12.2749C54.3542 13.3582 54.6876 14.2499 55.3542 14.9499C56.0209 15.6499 56.8626 15.9999 57.8792 15.9999Z" fill="#0A0D12"/>
<path d="M72.3378 18.7999C71.0878 18.7999 69.9795 18.5332 69.0128 17.9999C68.0462 17.4665 67.2878 16.7165 66.7378 15.7499C66.1878 14.7832 65.9128 13.6665 65.9128 12.3999C65.9128 11.1165 66.1795 9.97488 66.7128 8.97488C67.2628 7.97488 68.0128 7.19988 68.9628 6.64988C69.9295 6.08321 71.0628 5.79988 72.3628 5.79988C73.5795 5.79988 74.6545 6.06655 75.5878 6.59988C76.5212 7.13321 77.2462 7.86655 77.7628 8.79988C78.2962 9.71655 78.5628 10.7415 78.5628 11.8749C78.5628 12.0582 78.5545 12.2499 78.5378 12.4499C78.5378 12.6499 78.5295 12.8582 78.5128 13.0749H69.0878C69.1545 14.0415 69.4878 14.7999 70.0878 15.3499C70.7045 15.8999 71.4462 16.1749 72.3128 16.1749C72.9628 16.1749 73.5045 16.0332 73.9378 15.7499C74.3878 15.4499 74.7212 15.0665 74.9378 14.5999H78.1878C77.9545 15.3832 77.5628 16.0999 77.0128 16.7499C76.4795 17.3832 75.8128 17.8832 75.0128 18.2499C74.2295 18.6165 73.3378 18.7999 72.3378 18.7999ZM72.3628 8.39988C71.5795 8.39988 70.8878 8.62488 70.2878 9.07488C69.6878 9.50821 69.3045 10.1749 69.1378 11.0749H75.3128C75.2628 10.2582 74.9628 9.60821 74.4128 9.12488C73.8628 8.64155 73.1795 8.39988 72.3628 8.39988Z" fill="#0A0D12"/>
<path d="M84.8792 18.7999C83.7792 18.7999 82.8126 18.6249 81.9792 18.2749C81.1459 17.9082 80.4792 17.4082 79.9792 16.7749C79.4792 16.1415 79.1792 15.4082 79.0792 14.5749H82.3042C82.4042 15.0582 82.6709 15.4749 83.1042 15.8249C83.5542 16.1582 84.1292 16.3249 84.8292 16.3249C85.5292 16.3249 86.0376 16.1832 86.3542 15.8999C86.6876 15.6165 86.8542 15.2915 86.8542 14.9249C86.8542 14.3915 86.6209 14.0332 86.1542 13.8499C85.6876 13.6499 85.0376 13.4582 84.2042 13.2749C83.6709 13.1582 83.1292 13.0165 82.5792 12.8499C82.0292 12.6832 81.5209 12.4749 81.0542 12.2249C80.6042 11.9582 80.2376 11.6249 79.9542 11.2249C79.6709 10.8082 79.5292 10.2999 79.5292 9.69988C79.5292 8.59988 79.9626 7.67488 80.8292 6.92488C81.7126 6.17488 82.9459 5.79988 84.5292 5.79988C85.9959 5.79988 87.1626 6.14155 88.0292 6.82488C88.9126 7.50821 89.4376 8.44988 89.6042 9.64988H86.5792C86.3959 8.73321 85.7042 8.27488 84.5042 8.27488C83.9042 8.27488 83.4376 8.39155 83.1042 8.62488C82.7876 8.85821 82.6292 9.14988 82.6292 9.49988C82.6292 9.86654 82.8709 10.1582 83.3542 10.3749C83.8376 10.5915 84.4792 10.7915 85.2792 10.9749C86.1459 11.1749 86.9376 11.3999 87.6542 11.6499C88.3876 11.8832 88.9709 12.2415 89.4042 12.7249C89.8376 13.1915 90.0542 13.8665 90.0542 14.7499C90.0709 15.5165 89.8709 16.2082 89.4542 16.8249C89.0376 17.4415 88.4376 17.9249 87.6542 18.2749C86.8709 18.6249 85.9459 18.7999 84.8792 18.7999Z" fill="#0A0D12"/>
<path d="M96.5234 18.4999C95.2234 18.4999 94.1817 18.1832 93.3984 17.5499C92.6151 16.9165 92.2234 15.7915 92.2234 14.1749V8.77488H90.0984V6.09988H92.2234L92.5984 2.77488H95.4234V6.09988H98.7734V8.77488H96.2567C95.7965 8.77488 95.4234 9.14797 95.4234 9.60821V14.1999C95.4234 14.7999 95.5484 15.2165 95.7984 15.4499C96.065 15.6665 96.5151 15.7749 97.1484 15.7749H98.6984V18.4999H96.5234Z" fill="#0A0D12"/>
<path d="M101.746 4.17488C101.163 4.17488 100.679 3.99988 100.296 3.64988C99.9292 3.29988 99.7458 2.85821 99.7458 2.32488C99.7458 1.79155 99.9292 1.35821 100.296 1.02488C100.679 0.674878 101.163 0.499878 101.746 0.499878C102.329 0.499878 102.804 0.674878 103.171 1.02488C103.554 1.35821 103.746 1.79155 103.746 2.32488C103.746 2.85821 103.554 3.29988 103.171 3.64988C102.804 3.99988 102.329 4.17488 101.746 4.17488ZM100.146 18.4999V6.09988H103.346V18.4999H100.146Z" fill="#0A0D12"/>
<path d="M105.186 18.4999V6.09988H108.011L108.261 8.19988C108.644 7.46654 109.194 6.88321 109.911 6.44988C110.644 6.01655 111.503 5.79988 112.486 5.79988C114.019 5.79988 115.211 6.28321 116.061 7.24988C116.911 8.21655 117.336 9.63321 117.336 11.4999V18.4999H114.136V11.7999C114.136 10.7332 113.919 9.91654 113.486 9.34988C113.053 8.78321 112.378 8.49988 111.461 8.49988C110.561 8.49988 109.819 8.81655 109.236 9.44988C108.669 10.0832 108.386 10.9665 108.386 12.0999V18.4999H105.186Z" fill="#0A0D12"/>
<path d="M124.921 18.7999C123.671 18.7999 122.563 18.5332 121.596 17.9999C120.629 17.4665 119.871 16.7165 119.321 15.7499C118.771 14.7832 118.496 13.6665 118.496 12.3999C118.496 11.1165 118.763 9.97488 119.296 8.97488C119.846 7.97488 120.596 7.19988 121.546 6.64988C122.513 6.08321 123.646 5.79988 124.946 5.79988C126.163 5.79988 127.238 6.06655 128.171 6.59988C129.104 7.13321 129.829 7.86655 130.346 8.79988C130.879 9.71655 131.146 10.7415 131.146 11.8749C131.146 12.0582 131.138 12.2499 131.121 12.4499C131.121 12.6499 131.113 12.8582 131.096 13.0749H121.671C121.738 14.0415 122.071 14.7999 122.671 15.3499C123.288 15.8999 124.029 16.1749 124.896 16.1749C125.546 16.1749 126.088 16.0332 126.521 15.7499C126.971 15.4499 127.304 15.0665 127.521 14.5999H130.771C130.538 15.3832 130.146 16.0999 129.596 16.7499C129.063 17.3832 128.396 17.8832 127.596 18.2499C126.812 18.6165 125.921 18.7999 124.921 18.7999ZM124.946 8.39988C124.163 8.39988 123.471 8.62488 122.871 9.07488C122.271 9.50821 121.888 10.1749 121.721 11.0749H127.896C127.846 10.2582 127.546 9.60821 126.996 9.12488C126.446 8.64155 125.763 8.39988 124.946 8.39988Z" fill="#0A0D12"/>
</svg>
