<svg width="101" height="21" viewBox="0 0 101 21" fill="none" xmlns="http://www.w3.org/2000/svg">
<path d="M0.583374 16.4999V0.0974121H4.81337V12.7649H12.2159V16.4999H0.583374Z" fill="#0A0D12"/>
<path d="M19.2176 16.7249C17.8526 16.7249 16.7126 16.4699 15.7976 15.9599C14.8826 15.4349 14.1926 14.6999 13.7276 13.7549C13.2776 12.8099 13.0526 11.7149 13.0526 10.4699V10.2224C13.0526 8.90241 13.3001 7.79241 13.7951 6.89241C14.2901 5.97741 14.9726 5.27991 15.8426 4.79991C16.7276 4.31991 17.7401 4.07991 18.8801 4.07991C20.1551 4.07991 21.2351 4.31991 22.1201 4.79991C23.0201 5.26491 23.7026 5.92491 24.1676 6.77991C24.6326 7.61991 24.8651 8.60991 24.8651 9.74991V11.4149H17.0801V11.9774C17.0801 12.4874 17.2676 12.9074 17.6426 13.2374C18.0176 13.5674 18.4976 13.7324 19.0826 13.7324C19.6076 13.7324 20.0351 13.6274 20.3651 13.4174C20.6951 13.1924 20.8901 12.8999 20.9501 12.5399H24.7301C24.6851 13.3649 24.4226 14.0924 23.9426 14.7224C23.4626 15.3524 22.8176 15.8474 22.0076 16.2074C21.1976 16.5524 20.2676 16.7249 19.2176 16.7249ZM17.0801 8.89491V9.00741H20.9501V8.89491C20.9501 8.24991 20.7701 7.77741 20.4101 7.47741C20.0501 7.16241 19.5851 7.00491 19.0151 7.00491C18.4451 7.00491 17.9801 7.16991 17.6201 7.49991C17.2601 7.81491 17.0801 8.27991 17.0801 8.89491Z" fill="#0A0D12"/>
<path d="M30.3992 16.7249C29.3042 16.7249 28.4117 16.4774 27.7217 15.9824C27.0467 15.4874 26.5517 14.7899 26.2367 13.8899C25.9217 12.9749 25.7642 11.9174 25.7642 10.7174V10.1324C25.7642 7.98741 26.1842 6.44991 27.0242 5.51991C27.8642 4.57491 28.9892 4.10241 30.3992 4.10241C31.1642 4.10241 31.8542 4.26741 32.4692 4.59741C33.0992 4.91241 33.5642 5.37741 33.8642 5.99241H34.0442L34.2467 4.30491H38.0042V16.4999H34.0442V14.8349H33.8642C33.5642 15.4349 33.0992 15.8999 32.4692 16.2299C31.8542 16.5599 31.1642 16.7249 30.3992 16.7249ZM32.0192 13.5074C32.6342 13.5074 33.1217 13.3274 33.4817 12.9674C33.8417 12.6074 34.0217 12.0824 34.0217 11.3924V9.41241C34.0217 8.73741 33.8417 8.21991 33.4817 7.85991C33.1217 7.48491 32.6342 7.29741 32.0192 7.29741C31.3742 7.29741 30.8717 7.48491 30.5117 7.85991C30.1667 8.23491 29.9942 8.75241 29.9942 9.41241V11.4374C29.9942 12.0824 30.1667 12.5924 30.5117 12.9674C30.8717 13.3274 31.3742 13.5074 32.0192 13.5074Z" fill="#0A0D12"/>
<path d="M40.3384 20.2574V4.30491H44.0959L44.3209 5.99241H44.5009C44.8009 5.37741 45.2584 4.91241 45.8734 4.59741C46.5034 4.26741 47.2009 4.10241 47.9659 4.10241C49.0759 4.10241 49.9684 4.34991 50.6434 4.84491C51.3184 5.33991 51.8134 6.04491 52.1284 6.95991C52.4434 7.85991 52.6009 8.91741 52.6009 10.1324V10.7174C52.6009 12.8474 52.1809 14.3849 51.3409 15.3299C50.5009 16.2599 49.3759 16.7249 47.9659 16.7249C47.2009 16.7249 46.5034 16.5599 45.8734 16.2299C45.2584 15.8999 44.8009 15.4349 44.5009 14.8349H44.3209V20.2574H40.3384ZM46.3459 13.5074C46.9909 13.5074 47.4859 13.3274 47.8309 12.9674C48.1909 12.5924 48.3709 12.0824 48.3709 11.4374V9.41241C48.3709 8.75241 48.1909 8.23491 47.8309 7.85991C47.4859 7.48491 46.9909 7.29741 46.3459 7.29741C45.7459 7.29741 45.2584 7.48491 44.8834 7.85991C44.5234 8.21991 44.3434 8.73741 44.3434 9.41241V11.3924C44.3434 12.0824 44.5234 12.6074 44.8834 12.9674C45.2584 13.3274 45.7459 13.5074 46.3459 13.5074Z" fill="#0A0D12"/>
<path d="M53.0363 20.2574V17.1524H57.2663V15.1724L52.4738 4.30491H56.6138L58.7738 10.4699L59.1338 11.6399H59.2463L59.6063 10.4699L61.8563 4.30491H65.9738L61.2263 15.1724V17.8049C61.2263 18.6299 60.9863 19.2449 60.5063 19.6499C60.0413 20.0549 59.4188 20.2574 58.6388 20.2574H53.0363Z" fill="#0A0D12"/>
<path d="M71.8658 16.7249C70.5008 16.7249 69.3608 16.4699 68.4458 15.9599C67.5308 15.4349 66.8408 14.6999 66.3758 13.7549C65.9258 12.8099 65.7008 11.7149 65.7008 10.4699V10.2224C65.7008 8.90241 65.9483 7.79241 66.4433 6.89241C66.9383 5.97741 67.6208 5.27991 68.4908 4.79991C69.3758 4.31991 70.3883 4.07991 71.5283 4.07991C72.8033 4.07991 73.8833 4.31991 74.7683 4.79991C75.6683 5.26491 76.3508 5.92491 76.8158 6.77991C77.2808 7.61991 77.5133 8.60991 77.5133 9.74991V11.4149H69.7283V11.9774C69.7283 12.4874 69.9158 12.9074 70.2908 13.2374C70.6658 13.5674 71.1458 13.7324 71.7308 13.7324C72.2558 13.7324 72.6833 13.6274 73.0133 13.4174C73.3433 13.1924 73.5383 12.8999 73.5983 12.5399H77.3783C77.3333 13.3649 77.0708 14.0924 76.5908 14.7224C76.1108 15.3524 75.4658 15.8474 74.6558 16.2074C73.8458 16.5524 72.9158 16.7249 71.8658 16.7249ZM69.7283 8.89491V9.00741H73.5983V8.89491C73.5983 8.24991 73.4183 7.77741 73.0583 7.47741C72.6983 7.16241 72.2333 7.00491 71.6633 7.00491C71.0933 7.00491 70.6283 7.16991 70.2683 7.49991C69.9083 7.81491 69.7283 8.27991 69.7283 8.89491Z" fill="#0A0D12"/>
<path d="M83.0475 16.7249C81.9525 16.7249 81.06 16.4774 80.37 15.9824C79.695 15.4874 79.2 14.7899 78.885 13.8899C78.57 12.9749 78.4125 11.9174 78.4125 10.7174V10.1324C78.4125 7.98741 78.8325 6.44991 79.6725 5.51991C80.5125 4.57491 81.6375 4.10241 83.0475 4.10241C83.8125 4.10241 84.5025 4.26741 85.1175 4.59741C85.7475 4.91241 86.2125 5.37741 86.5125 5.99241H86.6925L86.895 4.30491H90.6525V16.4999H86.6925V14.8349H86.5125C86.2125 15.4349 85.7475 15.8999 85.1175 16.2299C84.5025 16.5599 83.8125 16.7249 83.0475 16.7249ZM84.6675 13.5074C85.2825 13.5074 85.77 13.3274 86.13 12.9674C86.49 12.6074 86.67 12.0824 86.67 11.3924V9.41241C86.67 8.73741 86.49 8.21991 86.13 7.85991C85.77 7.48491 85.2825 7.29741 84.6675 7.29741C84.0225 7.29741 83.52 7.48491 83.16 7.85991C82.815 8.23491 82.6425 8.75241 82.6425 9.41241V11.4374C82.6425 12.0824 82.815 12.5924 83.16 12.9674C83.52 13.3274 84.0225 13.5074 84.6675 13.5074Z" fill="#0A0D12"/>
<path d="M92.9867 16.4999V7.29741C92.9867 6.39741 93.2567 5.67741 93.7967 5.13741C94.3517 4.58241 95.0717 4.30491 95.9566 4.30491H100.907V7.49991H96.9692V16.4999H92.9867Z" fill="#0A0D12"/>
</svg>
