<svg width="202" height="402" viewBox="0 0 202 402" fill="none" xmlns="http://www.w3.org/2000/svg">
<g opacity="0.3">
<line x1="17.7088" y1="6.27581" x2="8.16716" y2="-1.73056" stroke="#717680" stroke-width="2"/>
<line x1="44.4605" y1="6.93087" x2="36.4542" y2="-2.61074" stroke="#717680" stroke-width="2"/>
<line x1="71.0519" y1="7.17773" x2="64.8241" y2="-3.60921" stroke="#717680" stroke-width="2"/>
<line x1="97.5291" y1="7.40843" x2="93.269" y2="-4.2961" stroke="#717680" stroke-width="2"/>
<line x1="123.937" y1="7.6297" x2="121.774" y2="-4.63676" stroke="#717680" stroke-width="2"/>
<line x1="150.324" y1="7.45605" x2="150.324" y2="-4.99964" stroke="#717680" stroke-width="2"/>
<line x1="176.742" y1="7.28241" x2="178.905" y2="-4.98406" stroke="#717680" stroke-width="2"/>
<line x1="175.217" y1="28.5222" x2="179.477" y2="16.8177" stroke="#717680" stroke-width="2"/>
<line x1="201.837" y1="27.9746" x2="208.065" y2="17.1877" stroke="#717680" stroke-width="2"/>
<line x1="16.4371" y1="28.7287" x2="8.43071" y2="19.1871" stroke="#717680" stroke-width="2"/>
<line x1="43.0285" y1="28.9746" x2="36.8007" y2="18.1877" stroke="#717680" stroke-width="2"/>
<line x1="69.5017" y1="29.2063" x2="65.2416" y2="17.5018" stroke="#717680" stroke-width="2"/>
<line x1="95.9097" y1="29.4266" x2="93.7468" y2="17.1601" stroke="#717680" stroke-width="2"/>
<line x1="122.297" y1="29.2529" x2="122.297" y2="16.7972" stroke="#717680" stroke-width="2"/>
<line x1="148.718" y1="29.0793" x2="150.881" y2="16.8128" stroke="#717680" stroke-width="2"/>
<line x1="147.189" y1="50.3201" x2="151.449" y2="38.6156" stroke="#717680" stroke-width="2"/>
<line x1="173.814" y1="49.7725" x2="180.042" y2="38.9855" stroke="#717680" stroke-width="2"/>
<line x1="200.605" y1="49.24" x2="208.611" y2="39.6984" stroke="#717680" stroke-width="2"/>
<line x1="15.0012" y1="50.7725" x2="8.77331" y2="39.9855" stroke="#717680" stroke-width="2"/>
<line x1="41.4783" y1="51.0041" x2="37.2182" y2="39.2996" stroke="#717680" stroke-width="2"/>
<line x1="67.8863" y1="51.2244" x2="65.7234" y2="38.958" stroke="#717680" stroke-width="2"/>
<line x1="94.2734" y1="51.0508" x2="94.2734" y2="38.5951" stroke="#717680" stroke-width="2"/>
<line x1="120.691" y1="50.8771" x2="122.854" y2="38.6107" stroke="#717680" stroke-width="2"/>
<line x1="119.166" y1="72.117" x2="123.426" y2="60.4124" stroke="#717680" stroke-width="2"/>
<line x1="145.786" y1="71.5703" x2="152.014" y2="60.7834" stroke="#717680" stroke-width="2"/>
<line x1="172.578" y1="71.0379" x2="180.584" y2="61.4963" stroke="#717680" stroke-width="2"/>
<line x1="199.576" y1="70.1363" x2="209.118" y2="62.1299" stroke="#717680" stroke-width="2"/>
<line x1="13.4509" y1="72.801" x2="9.19083" y2="61.0965" stroke="#717680" stroke-width="2"/>
<line x1="39.8589" y1="73.0223" x2="37.696" y2="60.7558" stroke="#717680" stroke-width="2"/>
<line x1="66.2461" y1="72.8486" x2="66.2461" y2="60.3929" stroke="#717680" stroke-width="2"/>
<line x1="92.6675" y1="72.675" x2="94.8304" y2="60.4085" stroke="#717680" stroke-width="2"/>
<line x1="91.1384" y1="93.9148" x2="95.3985" y2="82.2103" stroke="#717680" stroke-width="2"/>
<line x1="117.763" y1="93.3672" x2="123.991" y2="82.5802" stroke="#717680" stroke-width="2"/>
<line x1="144.554" y1="92.8357" x2="152.561" y2="83.2941" stroke="#717680" stroke-width="2"/>
<line x1="171.553" y1="91.9332" x2="181.094" y2="83.9268" stroke="#717680" stroke-width="2"/>
<line x1="198.785" y1="90.6662" x2="209.572" y2="84.4384" stroke="#717680" stroke-width="2"/>
<line x1="11.8355" y1="94.8192" x2="9.6726" y2="82.5527" stroke="#717680" stroke-width="2"/>
<line x1="38.2227" y1="94.6455" x2="38.2227" y2="82.1898" stroke="#717680" stroke-width="2"/>
<line x1="64.6402" y1="94.4719" x2="66.8031" y2="82.2054" stroke="#717680" stroke-width="2"/>
<line x1="63.115" y1="115.712" x2="67.3751" y2="104.007" stroke="#717680" stroke-width="2"/>
<line x1="89.7355" y1="115.165" x2="95.9634" y2="104.378" stroke="#717680" stroke-width="2"/>
<line x1="116.527" y1="114.633" x2="124.533" y2="105.091" stroke="#717680" stroke-width="2"/>
<line x1="143.525" y1="113.731" x2="153.067" y2="105.725" stroke="#717680" stroke-width="2"/>
<line x1="170.762" y1="112.463" x2="181.549" y2="106.235" stroke="#717680" stroke-width="2"/>
<line x1="198.256" y1="111.611" x2="209.96" y2="107.351" stroke="#717680" stroke-width="2"/>
<line x1="10.1953" y1="116.443" x2="10.1953" y2="103.988" stroke="#717680" stroke-width="2"/>
<line x1="36.6168" y1="116.27" x2="38.7797" y2="104.003" stroke="#717680" stroke-width="2"/>
<line x1="35.0877" y1="137.51" x2="39.3478" y2="125.805" stroke="#717680" stroke-width="2"/>
<line x1="61.7121" y1="136.962" x2="67.9399" y2="126.175" stroke="#717680" stroke-width="2"/>
<line x1="88.5035" y1="136.43" x2="96.5099" y2="126.889" stroke="#717680" stroke-width="2"/>
<line x1="115.502" y1="135.529" x2="125.043" y2="127.523" stroke="#717680" stroke-width="2"/>
<line x1="142.734" y1="134.261" x2="153.521" y2="128.033" stroke="#717680" stroke-width="2"/>
<line x1="170.228" y1="133.409" x2="181.933" y2="129.149" stroke="#717680" stroke-width="2"/>
<line x1="198.002" y1="132.196" x2="210.269" y2="130.033" stroke="#717680" stroke-width="2"/>
<line x1="8.58941" y1="138.068" x2="10.7523" y2="125.801" stroke="#717680" stroke-width="2"/>
<line x1="7.06421" y1="159.307" x2="11.3243" y2="147.603" stroke="#717680" stroke-width="2"/>
<line x1="33.6848" y1="158.76" x2="39.9126" y2="147.973" stroke="#717680" stroke-width="2"/>
<line x1="60.4761" y1="158.227" x2="68.4825" y2="148.686" stroke="#717680" stroke-width="2"/>
<line x1="87.4744" y1="157.326" x2="97.016" y2="149.319" stroke="#717680" stroke-width="2"/>
<line x1="114.711" y1="156.058" x2="125.498" y2="149.83" stroke="#717680" stroke-width="2"/>
<line x1="142.205" y1="155.206" x2="153.909" y2="150.946" stroke="#717680" stroke-width="2"/>
<line x1="169.979" y1="153.994" x2="182.245" y2="151.831" stroke="#717680" stroke-width="2"/>
<line x1="213.605" y1="154.811" x2="201.15" y2="154.811" stroke="#717680" stroke-width="2"/>
<line x1="5.66132" y1="180.558" x2="11.8892" y2="169.771" stroke="#717680" stroke-width="2"/>
<line x1="32.4527" y1="180.025" x2="40.4591" y2="170.484" stroke="#717680" stroke-width="2"/>
<line x1="59.451" y1="179.124" x2="68.9926" y2="171.117" stroke="#717680" stroke-width="2"/>
<line x1="86.6836" y1="177.856" x2="97.4705" y2="171.628" stroke="#717680" stroke-width="2"/>
<line x1="114.178" y1="177.004" x2="125.882" y2="172.744" stroke="#717680" stroke-width="2"/>
<line x1="141.951" y1="175.791" x2="154.218" y2="173.628" stroke="#717680" stroke-width="2"/>
<line x1="185.578" y1="176.607" x2="173.122" y2="176.607" stroke="#717680" stroke-width="2"/>
<line x1="213.287" y1="177.76" x2="201.021" y2="175.597" stroke="#717680" stroke-width="2"/>
<line x1="4.42536" y1="201.823" x2="12.4317" y2="192.281" stroke="#717680" stroke-width="2"/>
<line x1="31.4236" y1="200.92" x2="40.9652" y2="192.914" stroke="#717680" stroke-width="2"/>
<line x1="58.6602" y1="199.654" x2="69.4471" y2="193.426" stroke="#717680" stroke-width="2"/>
<line x1="86.1541" y1="198.802" x2="97.8586" y2="194.541" stroke="#717680" stroke-width="2"/>
<line x1="113.928" y1="197.588" x2="126.194" y2="195.426" stroke="#717680" stroke-width="2"/>
<line x1="157.555" y1="198.405" x2="145.099" y2="198.405" stroke="#717680" stroke-width="2"/>
<line x1="185.264" y1="199.558" x2="172.997" y2="197.395" stroke="#717680" stroke-width="2"/>
<line x1="212.701" y1="200.681" x2="200.996" y2="196.421" stroke="#717680" stroke-width="2"/>
<line x1="3.40018" y1="222.718" x2="12.9418" y2="214.712" stroke="#717680" stroke-width="2"/>
<line x1="30.6328" y1="221.45" x2="41.4198" y2="215.223" stroke="#717680" stroke-width="2"/>
<line x1="58.1267" y1="220.598" x2="69.8313" y2="216.338" stroke="#717680" stroke-width="2"/>
<line x1="85.9006" y1="219.385" x2="98.167" y2="217.222" stroke="#717680" stroke-width="2"/>
<line x1="211.852" y1="223.182" x2="201.065" y2="216.955" stroke="#717680" stroke-width="2"/>
<line x1="129.527" y1="220.203" x2="117.072" y2="220.203" stroke="#717680" stroke-width="2"/>
<line x1="157.237" y1="221.355" x2="144.97" y2="219.192" stroke="#717680" stroke-width="2"/>
<line x1="184.674" y1="222.478" x2="172.969" y2="218.218" stroke="#717680" stroke-width="2"/>
<line x1="2.60938" y1="243.248" x2="13.3963" y2="237.02" stroke="#717680" stroke-width="2"/>
<line x1="30.1033" y1="242.396" x2="41.8078" y2="238.136" stroke="#717680" stroke-width="2"/>
<line x1="57.8771" y1="241.183" x2="70.1436" y2="239.02" stroke="#717680" stroke-width="2"/>
<line x1="183.828" y1="244.98" x2="173.041" y2="238.752" stroke="#717680" stroke-width="2"/>
<line x1="210.775" y1="246.048" x2="201.234" y2="238.042" stroke="#717680" stroke-width="2"/>
<line x1="101.504" y1="242" x2="89.0482" y2="242" stroke="#717680" stroke-width="2"/>
<line x1="129.213" y1="243.153" x2="116.947" y2="240.99" stroke="#717680" stroke-width="2"/>
<line x1="156.65" y1="244.276" x2="144.946" y2="240.016" stroke="#717680" stroke-width="2"/>
<line x1="2.07595" y1="264.193" x2="13.7805" y2="259.933" stroke="#717680" stroke-width="2"/>
<line x1="29.8498" y1="262.981" x2="42.1163" y2="260.818" stroke="#717680" stroke-width="2"/>
<line x1="155.801" y1="266.778" x2="145.014" y2="260.55" stroke="#717680" stroke-width="2"/>
<line x1="182.752" y1="267.845" x2="173.21" y2="259.839" stroke="#717680" stroke-width="2"/>
<line x1="209.503" y1="268.5" x2="201.497" y2="258.959" stroke="#717680" stroke-width="2"/>
<line x1="73.4766" y1="263.798" x2="61.0209" y2="263.798" stroke="#717680" stroke-width="2"/>
<line x1="101.186" y1="264.951" x2="88.9193" y2="262.788" stroke="#717680" stroke-width="2"/>
<line x1="128.623" y1="266.073" x2="116.918" y2="261.812" stroke="#717680" stroke-width="2"/>
<line x1="1.82635" y1="284.778" x2="14.0928" y2="282.615" stroke="#717680" stroke-width="2"/>
<line x1="127.777" y1="288.575" x2="116.99" y2="282.347" stroke="#717680" stroke-width="2"/>
<line x1="154.724" y1="289.643" x2="145.183" y2="281.637" stroke="#717680" stroke-width="2"/>
<line x1="181.476" y1="290.298" x2="173.47" y2="280.756" stroke="#717680" stroke-width="2"/>
<line x1="208.068" y1="290.545" x2="201.84" y2="279.758" stroke="#717680" stroke-width="2"/>
<line x1="45.4531" y1="285.595" x2="32.9974" y2="285.595" stroke="#717680" stroke-width="2"/>
<line x1="73.1623" y1="286.748" x2="60.8958" y2="284.585" stroke="#717680" stroke-width="2"/>
<line x1="100.599" y1="287.87" x2="88.8949" y2="283.61" stroke="#717680" stroke-width="2"/>
<line x1="99.75" y1="310.373" x2="88.9631" y2="304.145" stroke="#717680" stroke-width="2"/>
<line x1="126.701" y1="311.44" x2="117.159" y2="303.434" stroke="#717680" stroke-width="2"/>
<line x1="153.453" y1="312.096" x2="145.446" y2="302.554" stroke="#717680" stroke-width="2"/>
<line x1="180.044" y1="312.342" x2="173.816" y2="301.555" stroke="#717680" stroke-width="2"/>
<line x1="206.517" y1="312.573" x2="202.257" y2="300.869" stroke="#717680" stroke-width="2"/>
<line x1="17.4258" y1="307.393" x2="4.97009" y2="307.393" stroke="#717680" stroke-width="2"/>
<line x1="45.1349" y1="308.545" x2="32.8685" y2="306.382" stroke="#717680" stroke-width="2"/>
<line x1="72.572" y1="309.668" x2="60.8675" y2="305.408" stroke="#717680" stroke-width="2"/>
<line x1="71.7266" y1="332.17" x2="60.9396" y2="325.942" stroke="#717680" stroke-width="2"/>
<line x1="98.6736" y1="333.238" x2="89.132" y2="325.231" stroke="#717680" stroke-width="2"/>
<line x1="125.425" y1="333.893" x2="117.419" y2="324.351" stroke="#717680" stroke-width="2"/>
<line x1="152.017" y1="334.14" x2="145.789" y2="323.353" stroke="#717680" stroke-width="2"/>
<line x1="178.494" y1="334.37" x2="174.234" y2="322.666" stroke="#717680" stroke-width="2"/>
<line x1="204.902" y1="334.592" x2="202.739" y2="322.325" stroke="#717680" stroke-width="2"/>
<line x1="17.1115" y1="330.342" x2="4.84504" y2="328.179" stroke="#717680" stroke-width="2"/>
<line x1="44.5486" y1="331.465" x2="32.8441" y2="327.205" stroke="#717680" stroke-width="2"/>
<line x1="43.6992" y1="353.968" x2="32.9123" y2="347.74" stroke="#717680" stroke-width="2"/>
<line x1="70.6502" y1="355.036" x2="61.1086" y2="347.029" stroke="#717680" stroke-width="2"/>
<line x1="97.4019" y1="355.691" x2="89.3956" y2="346.149" stroke="#717680" stroke-width="2"/>
<line x1="123.993" y1="355.937" x2="117.766" y2="345.15" stroke="#717680" stroke-width="2"/>
<line x1="150.467" y1="356.168" x2="146.206" y2="344.464" stroke="#717680" stroke-width="2"/>
<line x1="176.875" y1="356.389" x2="174.712" y2="344.123" stroke="#717680" stroke-width="2"/>
<line x1="16.5213" y1="353.263" x2="4.81674" y2="349.003" stroke="#717680" stroke-width="2"/>
<line x1="15.6758" y1="375.765" x2="4.88883" y2="369.538" stroke="#717680" stroke-width="2"/>
<line x1="42.6228" y1="376.832" x2="33.0812" y2="368.826" stroke="#717680" stroke-width="2"/>
<line x1="69.3746" y1="377.488" x2="61.3682" y2="367.946" stroke="#717680" stroke-width="2"/>
<line x1="95.966" y1="377.734" x2="89.7382" y2="366.947" stroke="#717680" stroke-width="2"/>
<line x1="122.443" y1="377.966" x2="118.183" y2="366.262" stroke="#717680" stroke-width="2"/>
<line x1="148.851" y1="378.186" x2="146.688" y2="365.92" stroke="#717680" stroke-width="2"/>
<line x1="175.238" y1="378.013" x2="175.238" y2="365.557" stroke="#717680" stroke-width="2"/>
<line x1="201.656" y1="377.839" x2="203.819" y2="365.573" stroke="#717680" stroke-width="2"/>
<line x1="200.131" y1="399.079" x2="204.391" y2="387.374" stroke="#717680" stroke-width="2"/>
<line x1="14.5994" y1="398.63" x2="5.05778" y2="390.624" stroke="#717680" stroke-width="2"/>
<line x1="41.3511" y1="399.285" x2="33.3448" y2="389.744" stroke="#717680" stroke-width="2"/>
<line x1="67.9426" y1="399.532" x2="61.7147" y2="388.745" stroke="#717680" stroke-width="2"/>
<line x1="94.4158" y1="399.763" x2="90.1557" y2="388.058" stroke="#717680" stroke-width="2"/>
<line x1="120.824" y1="399.984" x2="118.661" y2="387.718" stroke="#717680" stroke-width="2"/>
<line x1="147.211" y1="399.811" x2="147.211" y2="387.355" stroke="#717680" stroke-width="2"/>
<line x1="173.632" y1="399.637" x2="175.795" y2="387.37" stroke="#717680" stroke-width="2"/>
</g>
</svg>
