<svg width="46" height="45" viewBox="0 0 46 45" fill="none" xmlns="http://www.w3.org/2000/svg">
<g filter="url(#filter0_ddiii_154_9967)">
<g clip-path="url(#clip0_154_9967)">
<rect x="2.91669" width="40" height="40" rx="10" fill="#DD2590"/>
<rect width="40" height="40" transform="translate(2.91669)" fill="url(#paint0_linear_154_9967)"/>
<g filter="url(#filter1_d_154_9967)">
<path fill-rule="evenodd" clip-rule="evenodd" d="M18.0258 22.9499L20.8813 25.8054C22.6191 27.5432 25.4364 27.5432 27.1742 25.8054C27.7473 25.2323 28.1314 24.5418 28.3264 23.8113L30.3206 25.8054C32.0583 27.5432 34.8757 27.5432 36.6134 25.8054C38.3511 24.0677 38.3511 21.2503 36.6134 19.5126L30.3206 13.2198C28.5829 11.4821 25.7655 11.4821 24.0277 13.2198C23.4546 13.7929 23.0706 14.4834 22.8755 15.2139L20.8813 13.2198C19.1436 11.4821 16.3262 11.4821 14.5885 13.2198L9.41004 18.3983C7.4189 20.3894 7.4189 23.6177 9.41004 25.6088C11.4012 27.5999 14.6294 27.5999 16.6206 25.6088C17.3743 24.855 17.8427 23.924 18.0258 22.9499ZM19.3081 14.793C18.4393 13.9241 17.0306 13.9241 16.1617 14.793C15.2932 15.6615 15.2929 17.0693 16.1606 17.9383L22.4545 24.2322C23.3234 25.1011 24.7321 25.1011 25.601 24.2322C26.4694 23.3638 26.4698 21.9562 25.6023 21.0872L19.3081 14.793ZM15.0474 19.9715L13.0153 17.9394L10.9832 19.9715C9.86097 21.0937 9.86097 22.9133 10.9832 24.0356C12.1055 25.1579 13.9251 25.1579 15.0474 24.0356C16.1696 22.9133 16.1696 21.0937 15.0474 19.9715ZM25.5991 17.9376C24.7321 17.0686 24.7327 15.6612 25.601 14.793C26.4698 13.9241 27.8785 13.9241 28.7474 14.793L35.0402 21.0858C35.9091 21.9547 35.9091 23.3634 35.0402 24.2322C34.1713 25.1011 32.7626 25.1011 31.8938 24.2322L25.5991 17.9376Z" fill="url(#paint1_linear_154_9967)"/>
</g>
</g>
<rect x="3.75002" y="0.833333" width="38.3333" height="38.3333" rx="9.16667" stroke="url(#paint2_linear_154_9967)" stroke-width="1.66667"/>
</g>
<defs>
<filter id="filter0_ddiii_154_9967" x="0.416687" y="-2.5" width="45" height="47.5" filterUnits="userSpaceOnUse" color-interpolation-filters="sRGB">
<feFlood flood-opacity="0" result="BackgroundImageFix"/>
<feColorMatrix in="SourceAlpha" type="matrix" values="0 0 0 0 0 0 0 0 0 0 0 0 0 0 0 0 0 0 127 0" result="hardAlpha"/>
<feOffset dy="0.833333"/>
<feGaussianBlur stdDeviation="0.416667"/>
<feComposite in2="hardAlpha" operator="out"/>
<feColorMatrix type="matrix" values="0 0 0 0 0.162923 0 0 0 0 0.162923 0 0 0 0 0.162923 0 0 0 0.08 0"/>
<feBlend mode="normal" in2="BackgroundImageFix" result="effect1_dropShadow_154_9967"/>
<feColorMatrix in="SourceAlpha" type="matrix" values="0 0 0 0 0 0 0 0 0 0 0 0 0 0 0 0 0 0 127 0" result="hardAlpha"/>
<feMorphology radius="0.833333" operator="erode" in="SourceAlpha" result="effect2_dropShadow_154_9967"/>
<feOffset dy="2.5"/>
<feGaussianBlur stdDeviation="1.66667"/>
<feComposite in2="hardAlpha" operator="out"/>
<feColorMatrix type="matrix" values="0 0 0 0 0.164706 0 0 0 0 0.164706 0 0 0 0 0.164706 0 0 0 0.14 0"/>
<feBlend mode="normal" in2="effect1_dropShadow_154_9967" result="effect2_dropShadow_154_9967"/>
<feBlend mode="normal" in="SourceGraphic" in2="effect2_dropShadow_154_9967" result="shape"/>
<feColorMatrix in="SourceAlpha" type="matrix" values="0 0 0 0 0 0 0 0 0 0 0 0 0 0 0 0 0 0 127 0" result="hardAlpha"/>
<feOffset dy="-2.5"/>
<feGaussianBlur stdDeviation="1.25"/>
<feComposite in2="hardAlpha" operator="arithmetic" k2="-1" k3="1"/>
<feColorMatrix type="matrix" values="0 0 0 0 0 0 0 0 0 0 0 0 0 0 0 0 0 0 0.1 0"/>
<feBlend mode="normal" in2="shape" result="effect3_innerShadow_154_9967"/>
<feColorMatrix in="SourceAlpha" type="matrix" values="0 0 0 0 0 0 0 0 0 0 0 0 0 0 0 0 0 0 127 0" result="hardAlpha"/>
<feOffset dy="2.5"/>
<feGaussianBlur stdDeviation="1.25"/>
<feComposite in2="hardAlpha" operator="arithmetic" k2="-1" k3="1"/>
<feColorMatrix type="matrix" values="0 0 0 0 1 0 0 0 0 1 0 0 0 0 1 0 0 0 0.1 0"/>
<feBlend mode="normal" in2="effect3_innerShadow_154_9967" result="effect4_innerShadow_154_9967"/>
<feColorMatrix in="SourceAlpha" type="matrix" values="0 0 0 0 0 0 0 0 0 0 0 0 0 0 0 0 0 0 127 0" result="hardAlpha"/>
<feMorphology radius="0.833333" operator="erode" in="SourceAlpha" result="effect5_innerShadow_154_9967"/>
<feOffset/>
<feComposite in2="hardAlpha" operator="arithmetic" k2="-1" k3="1"/>
<feColorMatrix type="matrix" values="0 0 0 0 0 0 0 0 0 0 0 0 0 0 0 0 0 0 0.2 0"/>
<feBlend mode="normal" in2="effect4_innerShadow_154_9967" result="effect5_innerShadow_154_9967"/>
</filter>
<filter id="filter1_d_154_9967" x="5.41669" y="4.375" width="35" height="35" filterUnits="userSpaceOnUse" color-interpolation-filters="sRGB">
<feFlood flood-opacity="0" result="BackgroundImageFix"/>
<feColorMatrix in="SourceAlpha" type="matrix" values="0 0 0 0 0 0 0 0 0 0 0 0 0 0 0 0 0 0 127 0" result="hardAlpha"/>
<feMorphology radius="1.25" operator="erode" in="SourceAlpha" result="effect1_dropShadow_154_9967"/>
<feOffset dy="1.875"/>
<feGaussianBlur stdDeviation="1.875"/>
<feComposite in2="hardAlpha" operator="out"/>
<feColorMatrix type="matrix" values="0 0 0 0 0.141176 0 0 0 0 0.141176 0 0 0 0 0.141176 0 0 0 0.1 0"/>
<feBlend mode="normal" in2="BackgroundImageFix" result="effect1_dropShadow_154_9967"/>
<feBlend mode="normal" in="SourceGraphic" in2="effect1_dropShadow_154_9967" result="shape"/>
</filter>
<linearGradient id="paint0_linear_154_9967" x1="20" y1="4.96706e-07" x2="21.6667" y2="40" gradientUnits="userSpaceOnUse">
<stop stop-color="white" stop-opacity="0"/>
<stop offset="1" stop-color="white" stop-opacity="0.12"/>
</linearGradient>
<linearGradient id="paint1_linear_154_9967" x1="22.9167" y1="11.9165" x2="22.9167" y2="27.1087" gradientUnits="userSpaceOnUse">
<stop stop-color="white" stop-opacity="0.8"/>
<stop offset="1" stop-color="white" stop-opacity="0.5"/>
</linearGradient>
<linearGradient id="paint2_linear_154_9967" x1="22.9167" y1="0" x2="22.9167" y2="40" gradientUnits="userSpaceOnUse">
<stop stop-color="white" stop-opacity="0.12"/>
<stop offset="1" stop-color="white" stop-opacity="0"/>
</linearGradient>
<clipPath id="clip0_154_9967">
<rect x="2.91669" width="40" height="40" rx="10" fill="white"/>
</clipPath>
</defs>
</svg>
