<svg width="105" height="25" viewBox="0 0 105 25" fill="none" xmlns="http://www.w3.org/2000/svg">
<path d="M4.71085 18.4999H0.916687V0.616532H4.71085L10.0275 12.2899L15.3684 0.616532H19.2109V18.4999H15.4167V14.754C15.4167 10.8874 15.4167 10.0415 15.61 8.71236L11.8159 16.8332H8.23919L4.46919 8.71236C4.68669 10.0415 4.71085 11.5399 4.71085 13.4974V18.4999Z" fill="#0A0D12"/>
<path d="M26.1257 18.814C23.5641 18.814 21.9691 17.3157 21.9691 14.9474C21.9691 12.724 23.5399 11.3465 26.4399 11.129L29.8232 10.8632V10.6699C29.8232 9.4857 29.0982 8.85736 27.7691 8.85736C26.1982 8.85736 25.3524 9.46153 25.3524 10.549H22.2591C22.2591 7.8182 24.5066 6.02986 27.9624 6.02986C31.4666 6.02986 33.4482 7.98736 33.4482 11.4432V18.4999H30.1616L29.9199 16.9049C29.5332 18.0165 27.9382 18.814 26.1257 18.814ZM27.4307 16.059C28.8566 16.059 29.8474 15.3582 29.8474 13.9807V13.3282L27.9624 13.4974C26.3432 13.6424 25.7632 14.0049 25.7632 14.7782C25.7632 15.6482 26.2949 16.059 27.4307 16.059Z" fill="#0A0D12"/>
<path d="M35.5133 12.2407C35.5133 8.56736 37.9058 6.0057 41.3133 6.0057C42.9567 6.0057 44.2617 6.63403 44.9142 7.62486L45.1075 6.41653H48.6117V17.7265C48.6117 22.0524 46.1225 24.6624 41.99 24.6624C38.2925 24.6624 35.8033 22.5599 35.465 19.1282H39.235C39.3075 20.4815 40.3225 21.279 41.9658 21.279C43.7542 21.279 44.89 20.2157 44.89 18.4999V16.929C44.165 17.799 42.8117 18.3549 41.2408 18.3549C37.8575 18.3549 35.5133 15.8657 35.5133 12.2407ZM39.2592 12.144C39.2592 13.884 40.4192 15.1165 42.0625 15.1165C43.7542 15.1165 44.89 13.9324 44.89 12.144C44.89 10.3799 43.7542 9.24403 42.0383 9.24403C40.395 9.24403 39.2592 10.4282 39.2592 12.144Z" fill="#0A0D12"/>
<path d="M55.1321 18.4999H51.4105V6.41653H54.9146L55.1563 7.6732C55.9055 6.63403 57.283 6.02986 58.8538 6.02986C61.7297 6.02986 63.3971 7.86653 63.3971 11.0324V18.4999H59.6755V11.9265C59.6755 10.404 58.8297 9.4132 57.5488 9.4132C56.0746 9.4132 55.1321 10.3799 55.1321 11.8782V18.4999Z" fill="#0A0D12"/>
<path d="M65.4137 12.434C65.4137 8.6157 68.2171 6.05403 72.0837 6.05403C75.9262 6.05403 78.7296 8.6157 78.7296 12.434C78.7296 16.2524 75.9262 18.7899 72.0837 18.7899C68.2171 18.7899 65.4137 16.2524 65.4137 12.434ZM69.1596 12.4099C69.1596 14.2465 70.3437 15.4549 72.0837 15.4549C73.7996 15.4549 74.9837 14.2465 74.9837 12.4099C74.9837 10.5974 73.7996 9.38903 72.0837 9.38903C70.3437 9.38903 69.1596 10.5974 69.1596 12.4099Z" fill="#0A0D12"/>
<path d="M84.6089 18.4999H80.8872V0.278198H84.6089V18.4999Z" fill="#0A0D12"/>
<path d="M89.2375 4.53153C88.0534 4.53153 87.1109 3.58903 87.1109 2.40486C87.1109 1.2207 88.0534 0.302365 89.2375 0.302365C90.3975 0.302365 91.34 1.2207 91.34 2.40486C91.34 3.58903 90.3975 4.53153 89.2375 4.53153ZM87.4009 18.4999V6.41653H91.1225V18.4999H87.4009Z" fill="#0A0D12"/>
<path d="M97.5637 18.814C95.0021 18.814 93.407 17.3157 93.407 14.9474C93.407 12.724 94.9779 11.3465 97.8779 11.129L101.261 10.8632V10.6699C101.261 9.4857 100.536 8.85736 99.2071 8.85736C97.6362 8.85736 96.7904 9.46153 96.7904 10.549H93.6971C93.6971 7.8182 95.9445 6.02986 99.4004 6.02986C102.905 6.02986 104.886 7.98736 104.886 11.4432V18.4999H101.6L101.358 16.9049C100.971 18.0165 99.3762 18.814 97.5637 18.814ZM98.8687 16.059C100.295 16.059 101.285 15.3582 101.285 13.9807V13.3282L99.4004 13.4974C97.7812 13.6424 97.2012 14.0049 97.2012 14.7782C97.2012 15.6482 97.7329 16.059 98.8687 16.059Z" fill="#0A0D12"/>
</svg>
