<svg width="126" height="24" viewBox="0 0 126 24" fill="none" xmlns="http://www.w3.org/2000/svg">
<path d="M0.916687 17.5V0H7.39169C8.79169 0 9.95002 0.233333 10.8667 0.7C11.7834 1.16667 12.4667 1.80833 12.9167 2.625C13.3667 3.44167 13.5917 4.35833 13.5917 5.375C13.5917 6.34167 13.375 7.23333 12.9417 8.05C12.5084 8.85 11.8334 9.5 10.9167 10C10 10.4833 8.82502 10.725 7.39169 10.725H4.11669V17.5H0.916687ZM4.11669 8.125H7.19169C8.30835 8.125 9.10835 7.88333 9.59169 7.4C10.0917 6.9 10.3417 6.225 10.3417 5.375C10.3417 4.50833 10.0917 3.83333 9.59169 3.35C9.10835 2.85 8.30835 2.6 7.19169 2.6H4.11669V8.125Z" fill="#0A0D12"/>
<path d="M19.8425 17.8C18.6425 17.8 17.5591 17.525 16.5925 16.975C15.6425 16.425 14.8841 15.6667 14.3175 14.7C13.7675 13.7167 13.4925 12.5833 13.4925 11.3C13.4925 10.0167 13.7758 8.89167 14.3425 7.925C14.9091 6.94167 15.6675 6.175 16.6175 5.625C17.5841 5.075 18.6675 4.8 19.8675 4.8C21.0508 4.8 22.1175 5.075 23.0675 5.625C24.0341 6.175 24.7925 6.94167 25.3425 7.925C25.9091 8.89167 26.1925 10.0167 26.1925 11.3C26.1925 12.5833 25.9091 13.7167 25.3425 14.7C24.7925 15.6667 24.0341 16.425 23.0675 16.975C22.1008 17.525 21.0258 17.8 19.8425 17.8ZM19.8425 15.025C20.6758 15.025 21.4008 14.7167 22.0175 14.1C22.6341 13.4667 22.9425 12.5333 22.9425 11.3C22.9425 10.0667 22.6341 9.14167 22.0175 8.525C21.4008 7.89167 20.6841 7.575 19.8675 7.575C19.0175 7.575 18.2841 7.89167 17.6675 8.525C17.0675 9.14167 16.7675 10.0667 16.7675 11.3C16.7675 12.5333 17.0675 13.4667 17.6675 14.1C18.2841 14.7167 19.0091 15.025 19.8425 15.025Z" fill="#0A0D12"/>
<path d="M29.5391 17.5L25.9141 5.1H29.0891L31.2391 14.025L33.7391 5.1H37.2891L39.7891 14.025L41.9641 5.1H45.1391L41.4891 17.5H38.1641L35.5141 8.225L32.8641 17.5H29.5391Z" fill="#0A0D12"/>
<path d="M51.2436 17.8C49.9936 17.8 48.8853 17.5333 47.9186 17C46.952 16.4667 46.1936 15.7167 45.6436 14.75C45.0936 13.7833 44.8186 12.6667 44.8186 11.4C44.8186 10.1167 45.0853 8.975 45.6186 7.975C46.1686 6.975 46.9186 6.2 47.8686 5.65C48.8353 5.08333 49.9686 4.8 51.2686 4.8C52.4853 4.8 53.5603 5.06667 54.4936 5.6C55.427 6.13333 56.152 6.86667 56.6686 7.8C57.202 8.71667 57.4686 9.74167 57.4686 10.875C57.4686 11.0583 57.4603 11.25 57.4436 11.45C57.4436 11.65 57.4353 11.8583 57.4186 12.075H47.9936C48.0603 13.0417 48.3936 13.8 48.9936 14.35C49.6103 14.9 50.352 15.175 51.2186 15.175C51.8686 15.175 52.4103 15.0333 52.8436 14.75C53.2936 14.45 53.627 14.0667 53.8436 13.6H57.0936C56.8603 14.3833 56.4686 15.1 55.9186 15.75C55.3853 16.3833 54.7186 16.8833 53.9186 17.25C53.1353 17.6167 52.2436 17.8 51.2436 17.8ZM51.2686 7.4C50.4853 7.4 49.7936 7.625 49.1936 8.075C48.5936 8.50834 48.2103 9.175 48.0436 10.075H54.2186C54.1686 9.25834 53.8686 8.60833 53.3186 8.125C52.7686 7.64167 52.0853 7.4 51.2686 7.4Z" fill="#0A0D12"/>
<path d="M58.66 17.5V5.1H61.51L61.8101 7.425C62.26 6.625 62.8684 5.99167 63.635 5.525C64.4184 5.04167 65.335 4.8 66.385 4.8V8.175H65.485C64.785 8.175 64.16 8.28333 63.61 8.5C63.06 8.71667 62.6267 9.09167 62.31 9.625C62.01 10.1583 61.86 10.9 61.86 11.85V17.5H58.66Z" fill="#0A0D12"/>
<path d="M72.1972 17.8C71.0972 17.8 70.1305 17.625 69.2972 17.275C68.4638 16.9083 67.7972 16.4083 67.2972 15.775C66.7972 15.1417 66.4972 14.4083 66.3972 13.575H69.6222C69.7222 14.0583 69.9888 14.475 70.4222 14.825C70.8722 15.1583 71.4472 15.325 72.1472 15.325C72.8472 15.325 73.3555 15.1833 73.6722 14.9C74.0055 14.6167 74.1722 14.2917 74.1722 13.925C74.1722 13.3917 73.9388 13.0333 73.4722 12.85C73.0055 12.65 72.3555 12.4583 71.5222 12.275C70.9888 12.1583 70.4472 12.0167 69.8972 11.85C69.3472 11.6833 68.8388 11.475 68.3722 11.225C67.9222 10.9583 67.5555 10.625 67.2722 10.225C66.9888 9.80834 66.8472 9.3 66.8472 8.7C66.8472 7.6 67.2805 6.675 68.1471 5.925C69.0305 5.175 70.2638 4.8 71.8472 4.8C73.3138 4.8 74.4805 5.14167 75.3472 5.825C76.2305 6.50833 76.7555 7.45 76.9222 8.65H73.8972C73.7138 7.73333 73.0222 7.275 71.8222 7.275C71.2222 7.275 70.7555 7.39167 70.4222 7.625C70.1055 7.85834 69.9472 8.15 69.9472 8.5C69.9472 8.86667 70.1888 9.15833 70.6722 9.375C71.1555 9.59167 71.7972 9.79167 72.5972 9.975C73.4638 10.175 74.2555 10.4 74.9722 10.65C75.7055 10.8833 76.2888 11.2417 76.7222 11.725C77.1555 12.1917 77.3722 12.8667 77.3722 13.75C77.3888 14.5167 77.1888 15.2083 76.7722 15.825C76.3555 16.4417 75.7555 16.925 74.9722 17.275C74.1888 17.625 73.2638 17.8 72.1972 17.8Z" fill="#0A0D12"/>
<path d="M83.3569 17.8C81.8069 17.8 80.6069 17.3167 79.7569 16.35C78.9236 15.3833 78.5069 13.9667 78.5069 12.1V5.1H81.6819V11.8C81.6819 12.8667 81.8986 13.6833 82.3319 14.25C82.7653 14.8167 83.4486 15.1 84.3819 15.1C85.2653 15.1 85.9902 14.7833 86.5569 14.15C87.1403 13.5167 87.4319 12.6333 87.4319 11.5V5.1H90.6319V17.5H87.8069L87.5569 15.4C87.1736 16.1333 86.6153 16.7167 85.8819 17.15C85.1653 17.5833 84.3236 17.8 83.3569 17.8Z" fill="#0A0D12"/>
<path d="M92.4169 17.5V5.1H95.2669L95.5669 7.425C96.0169 6.625 96.6252 5.99167 97.3919 5.525C98.1752 5.04167 99.0919 4.8 100.142 4.8V8.175H99.2419C98.5419 8.175 97.9169 8.28333 97.3669 8.5C96.8169 8.71667 96.3835 9.09167 96.0669 9.625C95.7669 10.1583 95.6169 10.9 95.6169 11.85V17.5H92.4169Z" fill="#0A0D12"/>
<path d="M105.786 13.8C105.186 13.8 104.628 13.7333 104.111 13.6L103.186 14.525C103.469 14.675 103.853 14.8 104.336 14.9C104.819 15 105.603 15.1 106.686 15.2C108.336 15.35 109.536 15.7417 110.286 16.375C111.036 17.0083 111.411 17.8833 111.411 19C111.411 19.7333 111.211 20.425 110.811 21.075C110.411 21.7417 109.794 22.275 108.961 22.675C108.128 23.0917 107.061 23.3 105.761 23.3C103.994 23.3 102.569 22.9667 101.486 22.3C100.403 21.65 99.861 20.6667 99.861 19.35C99.861 18.2333 100.403 17.2667 101.486 16.45C101.153 16.3 100.861 16.1417 100.611 15.975C100.378 15.8083 100.169 15.6333 99.986 15.45V14.875L102.161 12.575C101.194 11.725 100.711 10.6333 100.711 9.3C100.711 8.46667 100.911 7.70833 101.311 7.025C101.728 6.34167 102.311 5.8 103.061 5.4C103.811 5 104.719 4.8 105.786 4.8C106.486 4.8 107.136 4.9 107.736 5.1H112.436V7.05L110.311 7.2C110.644 7.83333 110.811 8.53333 110.811 9.3C110.811 10.1333 110.611 10.8917 110.211 11.575C109.811 12.2583 109.228 12.8 108.461 13.2C107.711 13.6 106.819 13.8 105.786 13.8ZM105.786 11.35C106.436 11.35 106.969 11.175 107.386 10.825C107.819 10.475 108.036 9.975 108.036 9.325C108.036 8.675 107.819 8.175 107.386 7.825C106.969 7.475 106.436 7.3 105.786 7.3C105.103 7.3 104.553 7.475 104.136 7.825C103.719 8.175 103.511 8.675 103.511 9.325C103.511 9.975 103.719 10.475 104.136 10.825C104.553 11.175 105.103 11.35 105.786 11.35ZM102.786 19.025C102.786 19.6417 103.069 20.1 103.636 20.4C104.219 20.7167 104.928 20.875 105.761 20.875C106.561 20.875 107.211 20.7083 107.711 20.375C108.211 20.0583 108.461 19.625 108.461 19.075C108.461 18.625 108.294 18.25 107.961 17.95C107.644 17.65 107.003 17.4667 106.036 17.4C105.353 17.35 104.719 17.275 104.136 17.175C103.653 17.4417 103.303 17.7333 103.086 18.05C102.886 18.3667 102.786 18.6917 102.786 19.025Z" fill="#0A0D12"/>
<path d="M118.806 17.8C117.556 17.8 116.448 17.5333 115.481 17C114.514 16.4667 113.756 15.7167 113.206 14.75C112.656 13.7833 112.381 12.6667 112.381 11.4C112.381 10.1167 112.648 8.975 113.181 7.975C113.731 6.975 114.481 6.2 115.431 5.65C116.398 5.08333 117.531 4.8 118.831 4.8C120.048 4.8 121.123 5.06667 122.056 5.6C122.989 6.13333 123.714 6.86667 124.231 7.8C124.764 8.71667 125.031 9.74167 125.031 10.875C125.031 11.0583 125.023 11.25 125.006 11.45C125.006 11.65 124.998 11.8583 124.981 12.075H115.556C115.623 13.0417 115.956 13.8 116.556 14.35C117.173 14.9 117.914 15.175 118.781 15.175C119.431 15.175 119.973 15.0333 120.406 14.75C120.856 14.45 121.189 14.0667 121.406 13.6H124.656C124.423 14.3833 124.031 15.1 123.481 15.75C122.948 16.3833 122.281 16.8833 121.481 17.25C120.698 17.6167 119.806 17.8 118.806 17.8ZM118.831 7.4C118.048 7.4 117.356 7.625 116.756 8.075C116.156 8.50834 115.773 9.175 115.606 10.075H121.781C121.731 9.25834 121.431 8.60833 120.881 8.125C120.331 7.64167 119.648 7.4 118.831 7.4Z" fill="#0A0D12"/>
</svg>
