<svg width="143" height="18" viewBox="0 0 143 18" fill="none" xmlns="http://www.w3.org/2000/svg">
<path d="M7.0225 17.7026C4.8025 17.7026 3.115 17.2076 1.96 16.2176C0.82 15.2276 0.25 13.9376 0.25 12.3476H3.805C3.835 13.1576 4.105 13.8101 4.615 14.3051C5.14 14.7851 5.9875 15.0251 7.1575 15.0251C8.0575 15.0251 8.7775 14.8601 9.3175 14.5301C9.8575 14.2001 10.1275 13.7126 10.1275 13.0676C10.1275 12.5426 10.015 12.1376 9.79 11.8526C9.565 11.5526 9.175 11.3201 8.62 11.1551C8.065 10.9901 7.2925 10.8251 6.3025 10.6601C4.4125 10.3601 2.9875 9.85014 2.0275 9.13014C1.0675 8.39514 0.5875 7.31514 0.5875 5.89014C0.5875 4.34514 1.1575 3.13014 2.2975 2.24514C3.4375 1.34514 5.005 0.895142 7 0.895142C8.29 0.895142 9.4 1.09764 10.33 1.50264C11.26 1.90764 11.98 2.47764 12.49 3.21264C13.015 3.94764 13.2775 4.80264 13.2775 5.77764H9.745C9.715 4.98264 9.4225 4.41264 8.8675 4.06764C8.3275 3.72264 7.6675 3.55014 6.8875 3.55014C6.0625 3.55014 5.41 3.72264 4.93 4.06764C4.465 4.39764 4.2325 4.85514 4.2325 5.44014C4.2325 5.95014 4.3675 6.33264 4.6375 6.58764C4.9075 6.84264 5.3275 7.03764 5.8975 7.17264C6.4825 7.30764 7.2475 7.45764 8.1925 7.62264C8.8825 7.72764 9.5575 7.87014 10.2175 8.05014C10.8775 8.23014 11.47 8.50014 11.995 8.86014C12.535 9.20514 12.9625 9.69264 13.2775 10.3226C13.6075 10.9376 13.7725 11.7401 13.7725 12.7301C13.7725 14.2001 13.2025 15.4001 12.0625 16.3301C10.9375 17.2451 9.2575 17.7026 7.0225 17.7026Z" fill="#0A0D12"/>
<path d="M15.5917 17.5001V1.09764H18.8992V7.62264H19.0342C19.3642 6.82764 19.8742 6.22764 20.5642 5.82264C21.2542 5.41764 22.0267 5.21514 22.8817 5.21514C23.6917 5.21514 24.4117 5.38014 25.0417 5.71014C25.6867 6.04014 26.1967 6.57264 26.5717 7.30764C26.9467 8.02764 27.1342 8.99514 27.1342 10.2101V17.5001H23.8267V10.9301C23.8267 9.91014 23.6467 9.15264 23.2867 8.65764C22.9267 8.16264 22.3492 7.91514 21.5542 7.91514C20.6992 7.91514 20.0392 8.20764 19.5742 8.79264C19.1242 9.36264 18.8992 10.0301 18.8992 10.7951V17.5001H15.5917Z" fill="#0A0D12"/>
<path d="M33.3672 17.7026C31.9722 17.7026 30.9072 17.2976 30.1722 16.4876C29.4372 15.6776 29.0697 14.5001 29.0697 12.9551V5.44014H32.3772V12.0776C32.3772 13.0376 32.5497 13.7726 32.8947 14.2826C33.2547 14.7776 33.8472 15.0251 34.6722 15.0251C35.5122 15.0251 36.1572 14.7401 36.6072 14.1701C37.0722 13.5851 37.3047 12.8951 37.3047 12.1001V5.44014H40.6122V17.5001H37.4397L37.3047 15.2951H37.1472C36.8622 16.0751 36.3747 16.6751 35.6847 17.0951C35.0097 17.5001 34.2372 17.7026 33.3672 17.7026Z" fill="#0A0D12"/>
<path d="M46.8651 17.5001C46.0551 17.5001 45.4251 17.3801 44.9751 17.1401C44.5251 16.9001 44.2101 16.5626 44.0301 16.1276C43.8651 15.6776 43.7826 15.1526 43.7826 14.5526V8.09514H41.6226V5.44014H43.7826V2.15514L47.0676 1.84014V5.44014H51.2976V2.15514L54.5826 1.84014V5.44014H57.0126V8.09514H54.5826V13.9226C54.5826 14.2826 54.6651 14.5226 54.8301 14.6426C54.9951 14.7626 55.2351 14.8226 55.5501 14.8226H57.0126V17.5001H54.3801C53.5701 17.5001 52.9401 17.3801 52.4901 17.1401C52.0401 16.9001 51.7251 16.5626 51.5451 16.1276C51.3801 15.6776 51.2976 15.1526 51.2976 14.5526V8.09514H47.0676V13.9226C47.0676 14.2826 47.1501 14.5226 47.3151 14.6426C47.4801 14.7626 47.7201 14.8226 48.0351 14.8226H49.4976V17.5001H46.8651Z" fill="#0A0D12"/>
<path d="M63.5843 17.7026C62.3243 17.7026 61.2443 17.4476 60.3443 16.9376C59.4593 16.4276 58.7768 15.7151 58.2968 14.8001C57.8168 13.8701 57.5768 12.7901 57.5768 11.5601C57.5768 10.2551 57.8168 9.13014 58.2968 8.18514C58.7918 7.24014 59.4818 6.51264 60.3668 6.00264C61.2518 5.47764 62.2868 5.21514 63.4718 5.21514C64.8668 5.21514 66.0143 5.52264 66.9143 6.13764C67.8143 6.73764 68.4593 7.57014 68.8493 8.63514C69.2393 9.68514 69.3668 10.8776 69.2318 12.2126H60.8393C60.8243 13.1726 61.0718 13.9151 61.5818 14.4401C62.0918 14.9501 62.7593 15.2051 63.5843 15.2051C64.2143 15.2051 64.7468 15.0701 65.1818 14.8001C65.6318 14.5151 65.9168 14.1401 66.0368 13.6751H69.1643C69.0593 14.4851 68.7518 15.1901 68.2418 15.7901C67.7468 16.3901 67.1018 16.8626 66.3068 17.2076C65.5118 17.5376 64.6043 17.7026 63.5843 17.7026ZM63.4718 7.71264C62.7218 7.71264 62.1143 7.93014 61.6493 8.36514C61.1843 8.78514 60.9218 9.36264 60.8618 10.0976H65.9918C65.9468 9.28764 65.6843 8.68764 65.2043 8.29764C64.7393 7.90764 64.1618 7.71264 63.4718 7.71264Z" fill="#0A0D12"/>
<path d="M70.9425 17.5001V5.44014H73.935L74.07 7.37514H74.1825C74.4525 6.59514 74.88 6.05514 75.465 5.75514C76.065 5.44014 76.7475 5.28264 77.5125 5.28264H78.1875V8.38764H77.445C76.335 8.38764 75.5325 8.63514 75.0375 9.13014C74.5425 9.61014 74.28 10.3001 74.25 11.2001V17.5001H70.9425Z" fill="#0A0D12"/>
<path d="M80.7079 17.5001V8.09514H78.7279V5.44014H80.7079V4.15764C80.7079 3.16764 81.0154 2.41014 81.6304 1.88514C82.2454 1.36014 83.1154 1.09764 84.2404 1.09764H86.6704V3.32514H85.2079C84.7429 3.32514 84.4279 3.42264 84.2629 3.61764C84.0979 3.81264 84.0154 4.06014 84.0154 4.36014V5.44014H86.4679V8.09514H84.0154V17.5001H80.7079Z" fill="#0A0D12"/>
<path d="M87.7525 17.5001V5.44014H90.745L90.88 7.37514H90.9925C91.2625 6.59514 91.69 6.05514 92.275 5.75514C92.875 5.44014 93.5575 5.28264 94.3225 5.28264H94.9975V8.38764H94.255C93.145 8.38764 92.3425 8.63514 91.8475 9.13014C91.3525 9.61014 91.09 10.3001 91.06 11.2001V17.5001H87.7525Z" fill="#0A0D12"/>
<path d="M100.165 17.7026C98.7246 17.7026 97.5621 17.1851 96.6771 16.1501C95.7921 15.1001 95.3496 13.5401 95.3496 11.4701C95.3496 9.38514 95.7921 7.82514 96.6771 6.79014C97.5621 5.74014 98.7246 5.21514 100.165 5.21514C101.095 5.21514 101.89 5.42514 102.55 5.84514C103.225 6.26514 103.705 6.82764 103.99 7.53264H104.17L104.305 5.44014H107.477V17.5001H104.17V15.3851H103.99C103.705 16.0751 103.225 16.6376 102.55 17.0726C101.89 17.4926 101.095 17.7026 100.165 17.7026ZM101.425 15.0251C102.04 15.0251 102.542 14.8826 102.932 14.5976C103.337 14.3126 103.637 13.9451 103.832 13.4951C104.027 13.0301 104.125 12.5426 104.125 12.0326V10.8851C104.125 10.3601 104.027 9.87264 103.832 9.42264C103.637 8.97264 103.337 8.60514 102.932 8.32014C102.542 8.03514 102.04 7.89264 101.425 7.89264C100.615 7.89264 99.9621 8.18514 99.4671 8.77014C98.9721 9.34014 98.7246 10.2401 98.7246 11.4701C98.7246 12.6851 98.9721 13.5851 99.4671 14.1701C99.9621 14.7401 100.615 15.0251 101.425 15.0251Z" fill="#0A0D12"/>
<path d="M109.858 17.5001V5.44014H113.053L113.165 7.62264H113.3C113.6 6.82764 114.088 6.22764 114.763 5.82264C115.438 5.41764 116.18 5.21514 116.99 5.21514C117.83 5.21514 118.595 5.41764 119.285 5.82264C119.975 6.22764 120.485 6.92514 120.815 7.91514H120.995C121.28 7.01514 121.783 6.34014 122.503 5.89014C123.238 5.44014 124.063 5.21514 124.978 5.21514C125.758 5.21514 126.455 5.38014 127.07 5.71014C127.685 6.04014 128.173 6.57264 128.533 7.30764C128.908 8.02764 129.095 8.99514 129.095 10.2101V17.5001H125.788V10.9301C125.788 9.91014 125.615 9.15264 125.27 8.65764C124.94 8.16264 124.4 7.91514 123.65 7.91514C122.855 7.91514 122.233 8.20764 121.783 8.79264C121.348 9.36264 121.13 10.0301 121.13 10.7951V17.5001H117.823V10.9301C117.823 9.91014 117.65 9.15264 117.305 8.65764C116.975 8.16264 116.435 7.91514 115.685 7.91514C114.875 7.91514 114.253 8.20764 113.818 8.79264C113.383 9.36264 113.165 10.0301 113.165 10.7951V17.5001H109.858Z" fill="#0A0D12"/>
<path d="M136.646 17.7026C135.386 17.7026 134.306 17.4476 133.406 16.9376C132.521 16.4276 131.839 15.7151 131.359 14.8001C130.879 13.8701 130.639 12.7901 130.639 11.5601C130.639 10.2551 130.879 9.13014 131.359 8.18514C131.854 7.24014 132.544 6.51264 133.429 6.00264C134.314 5.47764 135.349 5.21514 136.534 5.21514C137.929 5.21514 139.076 5.52264 139.976 6.13764C140.876 6.73764 141.521 7.57014 141.911 8.63514C142.301 9.68514 142.429 10.8776 142.294 12.2126H133.901C133.886 13.1726 134.134 13.9151 134.644 14.4401C135.154 14.9501 135.821 15.2051 136.646 15.2051C137.276 15.2051 137.809 15.0701 138.244 14.8001C138.694 14.5151 138.979 14.1401 139.099 13.6751H142.226C142.121 14.4851 141.814 15.1901 141.304 15.7901C140.809 16.3901 140.164 16.8626 139.369 17.2076C138.574 17.5376 137.666 17.7026 136.646 17.7026ZM136.534 7.71264C135.784 7.71264 135.176 7.93014 134.711 8.36514C134.246 8.78514 133.984 9.36264 133.924 10.0976H139.054C139.009 9.28764 138.746 8.68764 138.266 8.29764C137.801 7.90764 137.224 7.71264 136.534 7.71264Z" fill="#0A0D12"/>
</svg>
