<svg width="125" height="17" viewBox="0 0 125 17" fill="none" xmlns="http://www.w3.org/2000/svg">
<path d="M14.3042 11.4826C14.3042 14.5651 11.8292 16.7251 7.77919 16.7251C3.70669 16.7251 1.16419 14.5426 0.916687 11.1226H4.38169C4.47169 12.9001 5.61919 14.0476 7.71169 14.0476C9.44419 14.0476 10.6817 13.2826 10.6817 11.9776C10.6817 10.9651 9.89419 10.3576 8.52169 10.0876L5.86669 9.57008C3.41419 9.09758 1.52419 7.77008 1.52419 5.09258C1.52419 2.21258 4.06669 0.142578 7.55419 0.142578C11.1767 0.142578 13.8317 2.25758 14.0567 5.63258H10.5917C10.4792 3.94508 9.30919 2.79758 7.59919 2.79758C5.93419 2.79758 4.98919 3.74258 4.98919 4.86758C4.98919 5.97008 6.00169 6.44258 7.17169 6.66758L9.93919 7.23008C12.7742 7.79258 14.3042 9.09758 14.3042 11.4826Z" fill="#0A0D12"/>
<path d="M23.214 13.4626V16.1851C22.449 16.5676 21.729 16.7251 20.8065 16.7251C18.3315 16.7251 16.779 15.3076 16.779 12.6076V7.16258H14.349V4.48508H16.779V0.930079H19.884V4.48508H23.3265V7.16258H19.884V11.8876C19.884 13.2826 20.514 13.8451 21.639 13.8451C22.224 13.8451 22.764 13.7101 23.214 13.4626Z" fill="#0A0D12"/>
<path d="M31.4912 16.5001V15.0151C30.7037 16.1401 29.5112 16.7251 27.8687 16.7251C25.3712 16.7251 23.7062 15.2626 23.7062 13.0126C23.7062 10.6726 25.5962 9.41258 29.1062 9.41258C29.7812 9.41258 30.3662 9.45758 31.1087 9.54758V8.82758C31.1087 7.47758 30.3437 6.69008 29.0387 6.69008C27.6887 6.69008 26.8787 7.47758 26.7662 8.82758H23.9537C24.1337 6.06008 26.1362 4.26008 29.0387 4.26008C32.1887 4.26008 34.0337 5.99258 34.0337 8.94008V16.5001H31.4912ZM26.6537 12.9226C26.6537 13.9351 27.3737 14.5651 28.5437 14.5651C30.1412 14.5651 31.1087 13.6876 31.1087 12.2926V11.4376C30.3662 11.3251 29.8487 11.2801 29.3087 11.2801C27.5312 11.2801 26.6537 11.8426 26.6537 12.9226Z" fill="#0A0D12"/>
<path d="M40.8913 16.7251C37.4263 16.7251 35.0413 14.1601 35.0413 10.4926C35.0413 6.89258 37.5163 4.26008 40.8913 4.26008C44.0188 4.26008 46.3363 6.37508 46.7188 9.61508H43.4338C43.2763 8.01758 42.3088 7.02758 40.8913 7.02758C39.2713 7.02758 38.2363 8.35508 38.2363 10.4926C38.2363 12.6526 39.2488 13.9576 40.8913 13.9576C42.3313 13.9576 43.2538 13.0126 43.4338 11.3701H46.7188C46.3588 14.6776 44.1088 16.7251 40.8913 16.7251Z" fill="#0A0D12"/>
<path d="M50.9542 16.5001H47.8267V0.345078H50.9542V9.57008L55.3417 4.48508H58.9417L53.9692 10.2451L59.5267 16.5001H55.5442L50.9542 10.9201V16.5001Z" fill="#0A0D12"/>
<path d="M71.3647 10.4926C71.3647 6.93758 73.4572 4.26008 76.6972 4.26008C78.1372 4.26008 79.3522 4.89008 80.2522 6.03758V0.345078H83.3572V16.5001H80.4997V14.7676C79.5547 16.0276 78.2497 16.7251 76.6972 16.7251C73.4572 16.7251 71.3647 14.0026 71.3647 10.4926ZM74.5822 10.4926C74.5822 12.7426 75.8647 13.9351 77.3947 13.9351C78.9472 13.9351 80.2297 12.7201 80.2297 10.4476C80.2297 8.17508 78.9247 7.02758 77.3947 7.02758C75.8647 7.02758 74.5822 8.19758 74.5822 10.4926Z" fill="#0A0D12"/>
<path d="M99.7609 16.5001H89.3209V0.345078H92.7409V13.4176H99.7609V16.5001Z" fill="#0A0D12"/>
<path d="M108.094 16.5001V15.0151C107.307 16.1401 106.114 16.7251 104.472 16.7251C101.974 16.7251 100.309 15.2626 100.309 13.0126C100.309 10.6726 102.199 9.41258 105.709 9.41258C106.384 9.41258 106.969 9.45758 107.712 9.54758V8.82758C107.712 7.47758 106.947 6.69008 105.642 6.69008C104.292 6.69008 103.482 7.47758 103.369 8.82758H100.557C100.737 6.06008 102.739 4.26008 105.642 4.26008C108.792 4.26008 110.637 5.99258 110.637 8.94008V16.5001H108.094ZM103.257 12.9226C103.257 13.9351 103.977 14.5651 105.147 14.5651C106.744 14.5651 107.712 13.6876 107.712 12.2926V11.4376C106.969 11.3251 106.452 11.2801 105.912 11.2801C104.134 11.2801 103.257 11.8426 103.257 12.9226Z" fill="#0A0D12"/>
<path d="M124.424 10.4926C124.424 14.0026 122.332 16.7251 119.092 16.7251C117.539 16.7251 116.234 16.0276 115.312 14.7676V16.5001H112.432V0.345078H115.559V6.03758C116.437 4.86758 117.652 4.26008 119.092 4.26008C122.332 4.26008 124.424 6.93758 124.424 10.4926ZM121.207 10.4926C121.207 8.19758 119.924 7.02758 118.394 7.02758C116.887 7.02758 115.582 8.17508 115.582 10.4476C115.582 12.7201 116.842 13.9351 118.394 13.9351C119.924 13.9351 121.207 12.7426 121.207 10.4926Z" fill="#0A0D12"/>
<path d="M65.2414 16.7026C68.5264 16.7026 70.8439 14.7676 70.8664 12.0226H67.8289C67.7389 13.3951 66.7489 14.2276 65.1964 14.2276C63.5764 14.2276 62.6314 13.4176 62.6314 12.0676C62.6314 10.7401 63.7339 9.95258 65.6014 9.95258H67.2439V7.47758H65.7814C64.2514 7.47758 63.3289 6.71258 63.3289 5.47508C63.3289 4.28258 64.1164 3.54008 65.4214 3.54008C66.7039 3.54008 67.5139 4.35008 67.5364 5.67758H70.5739C70.5514 3.04508 68.2564 1.06508 65.2639 1.06508C62.0689 1.06508 60.1114 2.79758 60.1114 5.25008C60.1114 6.64508 60.9214 7.74758 62.3839 8.51258C60.4939 9.12008 59.4139 10.3351 59.4139 11.9776C59.4139 14.7901 61.7539 16.7026 65.2414 16.7026Z" fill="#0A0D12"/>
</svg>
