<svg width="46" height="45" viewBox="0 0 46 45" fill="none" xmlns="http://www.w3.org/2000/svg">
<g filter="url(#filter0_ddiii_154_9975)">
<g clip-path="url(#clip0_154_9975)">
<rect x="2.91669" width="40" height="40" rx="10" fill="#1570EF"/>
<rect width="40" height="40" transform="translate(2.91669)" fill="url(#paint0_linear_154_9975)"/>
<g filter="url(#filter1_d_154_9975)">
<path fill-rule="evenodd" clip-rule="evenodd" d="M27.8207 6.25868C28.1001 6.11289 28.4341 6.11725 28.7096 6.27029L35.0386 9.78592C35.3363 9.95127 35.5209 10.265 35.5209 10.6055L35.5204 17.6365C35.5204 17.9858 35.3262 18.306 35.0166 18.4676L18.8456 26.9049C18.5662 27.0507 18.2322 27.0463 17.9567 26.8932L11.6293 23.3777C11.3317 23.2123 11.1472 22.8987 11.1471 22.5583L11.1459 15.5273C11.1458 15.1779 11.34 14.8575 11.6497 14.6959L27.8207 6.25868ZM13.021 16.0953L13.0218 21.0117L27.318 13.5527L27.3171 8.63628L13.021 16.0953ZM29.1921 8.68318L29.193 13.5692L33.6455 16.0431L33.6458 11.1571L29.1921 8.68318ZM32.606 17.6105L28.2416 15.1856L14.0616 22.5841L18.4259 25.009L32.606 17.6105Z" fill="url(#paint1_linear_154_9975)"/>
<path opacity="0.5" fill-rule="evenodd" clip-rule="evenodd" d="M18.8461 33.9366C18.5667 34.0824 18.2327 34.0781 17.9572 33.925L11.6281 30.4094C11.3305 30.244 11.1459 29.9303 11.1459 29.5898L11.1463 22.5588C11.1463 22.2096 11.3405 21.8893 11.6501 21.7277L27.8211 13.2904C28.1006 13.1446 28.4346 13.149 28.7101 13.3021L35.0375 16.8177C35.335 16.983 35.5196 17.2966 35.5196 17.637L35.5209 24.668C35.5209 25.0174 35.3268 25.3378 35.017 25.4994L18.8461 33.9366ZM33.6458 24.1L33.6449 19.1836L19.3488 26.6427L19.3496 31.559L33.6458 24.1ZM17.4746 31.5121L17.4738 26.6261L13.0212 24.1522L13.0209 29.0382L17.4746 31.5121ZM14.0608 22.5848L18.4252 25.0097L32.6052 17.6112L28.2408 15.1863L14.0608 22.5848Z" fill="url(#paint2_linear_154_9975)"/>
</g>
</g>
<rect x="3.75002" y="0.833333" width="38.3333" height="38.3333" rx="9.16667" stroke="url(#paint3_linear_154_9975)" stroke-width="1.66667"/>
</g>
<defs>
<filter id="filter0_ddiii_154_9975" x="0.416687" y="-2.5" width="45" height="47.5" filterUnits="userSpaceOnUse" color-interpolation-filters="sRGB">
<feFlood flood-opacity="0" result="BackgroundImageFix"/>
<feColorMatrix in="SourceAlpha" type="matrix" values="0 0 0 0 0 0 0 0 0 0 0 0 0 0 0 0 0 0 127 0" result="hardAlpha"/>
<feOffset dy="0.833333"/>
<feGaussianBlur stdDeviation="0.416667"/>
<feComposite in2="hardAlpha" operator="out"/>
<feColorMatrix type="matrix" values="0 0 0 0 0.162923 0 0 0 0 0.162923 0 0 0 0 0.162923 0 0 0 0.08 0"/>
<feBlend mode="normal" in2="BackgroundImageFix" result="effect1_dropShadow_154_9975"/>
<feColorMatrix in="SourceAlpha" type="matrix" values="0 0 0 0 0 0 0 0 0 0 0 0 0 0 0 0 0 0 127 0" result="hardAlpha"/>
<feMorphology radius="0.833333" operator="erode" in="SourceAlpha" result="effect2_dropShadow_154_9975"/>
<feOffset dy="2.5"/>
<feGaussianBlur stdDeviation="1.66667"/>
<feComposite in2="hardAlpha" operator="out"/>
<feColorMatrix type="matrix" values="0 0 0 0 0.164706 0 0 0 0 0.164706 0 0 0 0 0.164706 0 0 0 0.14 0"/>
<feBlend mode="normal" in2="effect1_dropShadow_154_9975" result="effect2_dropShadow_154_9975"/>
<feBlend mode="normal" in="SourceGraphic" in2="effect2_dropShadow_154_9975" result="shape"/>
<feColorMatrix in="SourceAlpha" type="matrix" values="0 0 0 0 0 0 0 0 0 0 0 0 0 0 0 0 0 0 127 0" result="hardAlpha"/>
<feOffset dy="-2.5"/>
<feGaussianBlur stdDeviation="1.25"/>
<feComposite in2="hardAlpha" operator="arithmetic" k2="-1" k3="1"/>
<feColorMatrix type="matrix" values="0 0 0 0 0 0 0 0 0 0 0 0 0 0 0 0 0 0 0.1 0"/>
<feBlend mode="normal" in2="shape" result="effect3_innerShadow_154_9975"/>
<feColorMatrix in="SourceAlpha" type="matrix" values="0 0 0 0 0 0 0 0 0 0 0 0 0 0 0 0 0 0 127 0" result="hardAlpha"/>
<feOffset dy="2.5"/>
<feGaussianBlur stdDeviation="1.25"/>
<feComposite in2="hardAlpha" operator="arithmetic" k2="-1" k3="1"/>
<feColorMatrix type="matrix" values="0 0 0 0 1 0 0 0 0 1 0 0 0 0 1 0 0 0 0.1 0"/>
<feBlend mode="normal" in2="effect3_innerShadow_154_9975" result="effect4_innerShadow_154_9975"/>
<feColorMatrix in="SourceAlpha" type="matrix" values="0 0 0 0 0 0 0 0 0 0 0 0 0 0 0 0 0 0 127 0" result="hardAlpha"/>
<feMorphology radius="0.833333" operator="erode" in="SourceAlpha" result="effect5_innerShadow_154_9975"/>
<feOffset/>
<feComposite in2="hardAlpha" operator="arithmetic" k2="-1" k3="1"/>
<feColorMatrix type="matrix" values="0 0 0 0 0 0 0 0 0 0 0 0 0 0 0 0 0 0 0.2 0"/>
<feBlend mode="normal" in2="effect4_innerShadow_154_9975" result="effect5_innerShadow_154_9975"/>
</filter>
<filter id="filter1_d_154_9975" x="8.64587" y="4.375" width="29.375" height="35" filterUnits="userSpaceOnUse" color-interpolation-filters="sRGB">
<feFlood flood-opacity="0" result="BackgroundImageFix"/>
<feColorMatrix in="SourceAlpha" type="matrix" values="0 0 0 0 0 0 0 0 0 0 0 0 0 0 0 0 0 0 127 0" result="hardAlpha"/>
<feMorphology radius="1.25" operator="erode" in="SourceAlpha" result="effect1_dropShadow_154_9975"/>
<feOffset dy="1.875"/>
<feGaussianBlur stdDeviation="1.875"/>
<feComposite in2="hardAlpha" operator="out"/>
<feColorMatrix type="matrix" values="0 0 0 0 0.141176 0 0 0 0 0.141176 0 0 0 0 0.141176 0 0 0 0.1 0"/>
<feBlend mode="normal" in2="BackgroundImageFix" result="effect1_dropShadow_154_9975"/>
<feBlend mode="normal" in="SourceGraphic" in2="effect1_dropShadow_154_9975" result="shape"/>
</filter>
<linearGradient id="paint0_linear_154_9975" x1="20" y1="4.96706e-07" x2="21.6667" y2="40" gradientUnits="userSpaceOnUse">
<stop stop-color="white" stop-opacity="0"/>
<stop offset="1" stop-color="white" stop-opacity="0.12"/>
</linearGradient>
<linearGradient id="paint1_linear_154_9975" x1="23.3334" y1="7.08984" x2="23.3334" y2="26.0737" gradientUnits="userSpaceOnUse">
<stop stop-color="white" stop-opacity="0.8"/>
<stop offset="1" stop-color="white" stop-opacity="0.5"/>
</linearGradient>
<linearGradient id="paint2_linear_154_9975" x1="23.3334" y1="33.1055" x2="23.3334" y2="14.1216" gradientUnits="userSpaceOnUse">
<stop stop-color="white" stop-opacity="0.8"/>
<stop offset="1" stop-color="white" stop-opacity="0.5"/>
</linearGradient>
<linearGradient id="paint3_linear_154_9975" x1="22.9167" y1="0" x2="22.9167" y2="40" gradientUnits="userSpaceOnUse">
<stop stop-color="white" stop-opacity="0.12"/>
<stop offset="1" stop-color="white" stop-opacity="0"/>
</linearGradient>
<clipPath id="clip0_154_9975">
<rect x="2.91669" width="40" height="40" rx="10" fill="white"/>
</clipPath>
</defs>
</svg>
