<svg width="46" height="45" viewBox="0 0 46 45" fill="none" xmlns="http://www.w3.org/2000/svg">
<g filter="url(#filter0_ddiii_154_9984)">
<g clip-path="url(#clip0_154_9984)">
<rect x="3.41669" width="40" height="40" rx="10" fill="#0A0D12"/>
<rect width="40" height="40" transform="translate(3.41669)" fill="url(#paint0_linear_154_9984)"/>
<g filter="url(#filter1_d_154_9984)">
<path fill-rule="evenodd" clip-rule="evenodd" d="M19.8717 25.7538C20.3898 25.132 21.1574 24.7725 21.9668 24.7725H32.9621C35.9746 24.7725 38.4167 22.3304 38.4167 19.3179V16.5907C38.4167 13.5782 35.9746 11.1361 32.9621 11.1361H30.8304C30.021 11.1361 29.2535 11.4956 28.7353 12.1174L26.9617 14.2457C26.4436 14.8675 25.676 15.227 24.8666 15.227H13.8712C10.8588 15.227 8.41669 17.6691 8.41669 20.6816V23.4088C8.41669 26.4213 10.8588 28.8634 13.8712 28.8634H16.0029C16.8123 28.8634 17.5799 28.5039 18.0981 27.8821L19.8717 25.7538ZM34.3258 16.5907C34.3258 15.8375 33.7153 15.227 32.9621 15.227H28.785C27.9756 15.227 27.208 15.5865 26.6898 16.2083L24.9163 18.3366C24.3981 18.9584 23.6305 19.3179 22.8211 19.3179H13.8712C13.1181 19.3179 12.5076 19.9284 12.5076 20.6816V23.4088C12.5076 24.1619 13.1181 24.7725 13.8712 24.7725H18.0484C18.8578 24.7725 19.6254 24.413 20.1435 23.7912L21.9171 21.6629C22.4353 21.0411 23.2029 20.6816 24.0123 20.6816H32.9621C33.7153 20.6816 34.3258 20.071 34.3258 19.3179V16.5907Z" fill="url(#paint1_linear_154_9984)"/>
</g>
</g>
<rect x="4.25002" y="0.833333" width="38.3333" height="38.3333" rx="9.16667" stroke="url(#paint2_linear_154_9984)" stroke-width="1.66667"/>
</g>
<defs>
<filter id="filter0_ddiii_154_9984" x="0.916687" y="-2.5" width="45.0001" height="47.5" filterUnits="userSpaceOnUse" color-interpolation-filters="sRGB">
<feFlood flood-opacity="0" result="BackgroundImageFix"/>
<feColorMatrix in="SourceAlpha" type="matrix" values="0 0 0 0 0 0 0 0 0 0 0 0 0 0 0 0 0 0 127 0" result="hardAlpha"/>
<feOffset dy="0.833333"/>
<feGaussianBlur stdDeviation="0.416667"/>
<feComposite in2="hardAlpha" operator="out"/>
<feColorMatrix type="matrix" values="0 0 0 0 0.162923 0 0 0 0 0.162923 0 0 0 0 0.162923 0 0 0 0.08 0"/>
<feBlend mode="normal" in2="BackgroundImageFix" result="effect1_dropShadow_154_9984"/>
<feColorMatrix in="SourceAlpha" type="matrix" values="0 0 0 0 0 0 0 0 0 0 0 0 0 0 0 0 0 0 127 0" result="hardAlpha"/>
<feMorphology radius="0.833333" operator="erode" in="SourceAlpha" result="effect2_dropShadow_154_9984"/>
<feOffset dy="2.5"/>
<feGaussianBlur stdDeviation="1.66667"/>
<feComposite in2="hardAlpha" operator="out"/>
<feColorMatrix type="matrix" values="0 0 0 0 0.164706 0 0 0 0 0.164706 0 0 0 0 0.164706 0 0 0 0.14 0"/>
<feBlend mode="normal" in2="effect1_dropShadow_154_9984" result="effect2_dropShadow_154_9984"/>
<feBlend mode="normal" in="SourceGraphic" in2="effect2_dropShadow_154_9984" result="shape"/>
<feColorMatrix in="SourceAlpha" type="matrix" values="0 0 0 0 0 0 0 0 0 0 0 0 0 0 0 0 0 0 127 0" result="hardAlpha"/>
<feOffset dy="-2.5"/>
<feGaussianBlur stdDeviation="1.25"/>
<feComposite in2="hardAlpha" operator="arithmetic" k2="-1" k3="1"/>
<feColorMatrix type="matrix" values="0 0 0 0 0 0 0 0 0 0 0 0 0 0 0 0 0 0 0.1 0"/>
<feBlend mode="normal" in2="shape" result="effect3_innerShadow_154_9984"/>
<feColorMatrix in="SourceAlpha" type="matrix" values="0 0 0 0 0 0 0 0 0 0 0 0 0 0 0 0 0 0 127 0" result="hardAlpha"/>
<feOffset dy="2.5"/>
<feGaussianBlur stdDeviation="1.25"/>
<feComposite in2="hardAlpha" operator="arithmetic" k2="-1" k3="1"/>
<feColorMatrix type="matrix" values="0 0 0 0 1 0 0 0 0 1 0 0 0 0 1 0 0 0 0.1 0"/>
<feBlend mode="normal" in2="effect3_innerShadow_154_9984" result="effect4_innerShadow_154_9984"/>
<feColorMatrix in="SourceAlpha" type="matrix" values="0 0 0 0 0 0 0 0 0 0 0 0 0 0 0 0 0 0 127 0" result="hardAlpha"/>
<feMorphology radius="0.833333" operator="erode" in="SourceAlpha" result="effect5_innerShadow_154_9984"/>
<feOffset/>
<feComposite in2="hardAlpha" operator="arithmetic" k2="-1" k3="1"/>
<feColorMatrix type="matrix" values="0 0 0 0 0 0 0 0 0 0 0 0 0 0 0 0 0 0 0.2 0"/>
<feBlend mode="normal" in2="effect4_innerShadow_154_9984" result="effect5_innerShadow_154_9984"/>
</filter>
<filter id="filter1_d_154_9984" x="5.91669" y="4.375" width="35.0001" height="35" filterUnits="userSpaceOnUse" color-interpolation-filters="sRGB">
<feFlood flood-opacity="0" result="BackgroundImageFix"/>
<feColorMatrix in="SourceAlpha" type="matrix" values="0 0 0 0 0 0 0 0 0 0 0 0 0 0 0 0 0 0 127 0" result="hardAlpha"/>
<feMorphology radius="1.25" operator="erode" in="SourceAlpha" result="effect1_dropShadow_154_9984"/>
<feOffset dy="1.875"/>
<feGaussianBlur stdDeviation="1.875"/>
<feComposite in2="hardAlpha" operator="out"/>
<feColorMatrix type="matrix" values="0 0 0 0 0.141176 0 0 0 0 0.141176 0 0 0 0 0.141176 0 0 0 0.1 0"/>
<feBlend mode="normal" in2="BackgroundImageFix" result="effect1_dropShadow_154_9984"/>
<feBlend mode="normal" in="SourceGraphic" in2="effect1_dropShadow_154_9984" result="shape"/>
</filter>
<linearGradient id="paint0_linear_154_9984" x1="20" y1="4.96706e-07" x2="21.6667" y2="40" gradientUnits="userSpaceOnUse">
<stop stop-color="white" stop-opacity="0"/>
<stop offset="1" stop-color="white" stop-opacity="0.12"/>
</linearGradient>
<linearGradient id="paint1_linear_154_9984" x1="23.4167" y1="11.1361" x2="23.4167" y2="28.8634" gradientUnits="userSpaceOnUse">
<stop stop-color="white" stop-opacity="0.8"/>
<stop offset="1" stop-color="white" stop-opacity="0.5"/>
</linearGradient>
<linearGradient id="paint2_linear_154_9984" x1="23.4167" y1="0" x2="23.4167" y2="40" gradientUnits="userSpaceOnUse">
<stop stop-color="white" stop-opacity="0.12"/>
<stop offset="1" stop-color="white" stop-opacity="0"/>
</linearGradient>
<clipPath id="clip0_154_9984">
<rect x="3.41669" width="40" height="40" rx="10" fill="white"/>
</clipPath>
</defs>
</svg>
