<svg width="120" height="22" viewBox="0 0 120 22" fill="none" xmlns="http://www.w3.org/2000/svg">
<path d="M14.7042 16.5004L12.2067 7.70291L11.8467 6.08291L11.4642 7.70291L8.98925 16.5004H4.93925L0.416748 1.20042H4.26425L6.71675 11.2354L7.12175 13.0579L7.52675 11.2354L10.3617 1.20042H13.5117L16.3242 11.2354L16.7292 13.0579L17.1342 11.2354L19.5867 1.20042H23.2317L18.7092 16.5004H14.7042Z" fill="#0A0D12"/>
<path d="M26.8029 8.40042H23.3604C23.7204 5.67791 25.8129 4.01292 28.9179 4.01292C32.3829 4.01292 34.1829 6.03791 34.1829 8.85042V13.4854C34.1829 15.0604 34.3179 15.8704 34.5204 16.5004H30.9654C30.8529 16.0954 30.7854 15.5779 30.7629 14.9929C29.8179 16.2979 28.3779 16.8604 26.9379 16.8604C24.6429 16.8604 22.9329 15.6904 22.9329 13.3729C22.9329 11.7304 23.8779 10.4704 25.7904 9.79542C27.3654 9.27792 28.8729 9.12042 30.7404 9.09791V8.82791C30.7404 7.50041 30.0879 6.80292 28.7604 6.80292C27.5904 6.80292 26.9604 7.45542 26.8029 8.40042ZM26.3754 13.1479C26.3754 13.9579 26.9829 14.4754 27.9954 14.4754C29.5254 14.4754 30.7404 13.2379 30.7404 11.5729V11.1004C27.2529 11.1679 26.3754 12.0229 26.3754 13.1479Z" fill="#0A0D12"/>
<path d="M36.1835 16.5004V4.39541H39.626V6.08291C40.391 4.64292 41.561 4.01292 42.7985 4.01292C43.2935 4.01292 43.7435 4.14792 43.991 4.39541V7.29791C43.586 7.20791 43.1585 7.16292 42.6185 7.16292C40.5485 7.16292 39.626 8.33292 39.626 10.2454V16.5004H36.1835Z" fill="#0A0D12"/>
<path d="M48.3606 21.4729H44.9181V4.39541H48.3606V5.65542C49.1031 4.59791 50.1381 4.01292 51.3981 4.01292C54.5256 4.01292 56.4831 6.46542 56.4831 10.4254C56.4831 14.5429 54.4806 16.8604 51.3981 16.8604C50.1156 16.8604 49.0806 16.3204 48.3606 15.2854V21.4729ZM50.6781 6.80292C49.1481 6.80292 48.3606 8.08542 48.3606 10.4254C48.3606 12.7654 49.1706 14.0704 50.6781 14.0704C52.1631 14.0704 52.9506 12.7879 52.9506 10.4254C52.9506 8.08542 52.1406 6.80292 50.6781 6.80292Z" fill="#0A0D12"/>
<path d="M60.8419 7.74792C60.8419 10.1329 68.3344 8.04041 68.3344 12.8329C68.3344 15.2179 66.1294 16.8604 62.9794 16.8604C59.9194 16.8604 57.7144 15.5104 57.2644 12.5179H60.7069C60.8644 13.6429 61.7869 14.2504 63.0694 14.2504C64.2844 14.2504 64.8919 13.7779 64.8919 13.0354C64.8919 10.6954 57.5569 12.7879 57.5569 7.92792C57.5569 5.90292 59.1994 4.01292 62.4394 4.01292C65.3419 4.01292 67.5469 5.34042 67.8844 8.40042H64.4644C64.2619 7.16291 63.5419 6.64542 62.3269 6.64542C61.4269 6.64542 60.8419 7.09542 60.8419 7.74792Z" fill="#0A0D12"/>
<path d="M73.0587 21.4729H69.6162V4.39541H73.0587V5.65542C73.8012 4.59791 74.8362 4.01292 76.0962 4.01292C79.2237 4.01292 81.1812 6.46542 81.1812 10.4254C81.1812 14.5429 79.1787 16.8604 76.0962 16.8604C74.8137 16.8604 73.7787 16.3204 73.0587 15.2854V21.4729ZM75.3762 6.80292C73.8462 6.80292 73.0587 8.08542 73.0587 10.4254C73.0587 12.7654 73.8687 14.0704 75.3762 14.0704C76.8612 14.0704 77.6487 12.7879 77.6487 10.4254C77.6487 8.08542 76.8387 6.80292 75.3762 6.80292Z" fill="#0A0D12"/>
<path d="M93.955 12.5179C93.3251 15.3079 91.0751 16.8604 88.105 16.8604C84.3475 16.8604 82.0301 14.4304 82.0301 10.4479C82.0301 6.33041 84.37 4.01292 87.97 4.01292C91.5926 4.01292 93.8651 6.42042 93.8651 10.3804V11.1454H85.54C85.72 13.0804 86.62 14.1154 88.105 14.1154C89.23 14.1154 89.995 13.6204 90.355 12.5179H93.955ZM87.97 6.75792C86.6876 6.75792 85.8775 7.59042 85.6076 9.16541H90.3101C90.04 7.59042 89.23 6.75792 87.97 6.75792Z" fill="#0A0D12"/>
<path d="M106.711 12.5179C106.081 15.3079 103.831 16.8604 100.861 16.8604C97.1031 16.8604 94.7856 14.4304 94.7856 10.4479C94.7856 6.33041 97.1256 4.01292 100.726 4.01292C104.348 4.01292 106.621 6.42042 106.621 10.3804V11.1454H98.2956C98.4756 13.0804 99.3756 14.1154 100.861 14.1154C101.986 14.1154 102.751 13.6204 103.111 12.5179H106.711ZM100.726 6.75792C99.4431 6.75792 98.6331 7.59042 98.3631 9.16541H103.066C102.796 7.59042 101.986 6.75792 100.726 6.75792Z" fill="#0A0D12"/>
<path d="M112.604 16.8604C109.499 16.8604 107.541 14.4304 107.541 10.4479C107.541 6.33041 109.544 4.01292 112.604 4.01292C113.886 4.01292 114.921 4.55292 115.664 5.58791V0.300415H119.106V16.5004H115.664V15.2179C114.921 16.2754 113.864 16.8604 112.604 16.8604ZM113.346 14.0704C114.876 14.0704 115.664 12.8104 115.664 10.4479C115.664 8.10791 114.854 6.80292 113.346 6.80292C111.861 6.80292 111.074 8.08541 111.074 10.4479C111.074 12.7879 111.884 14.0704 113.346 14.0704Z" fill="#0A0D12"/>
</svg>
