<svg width="118" height="18" viewBox="0 0 118 18" fill="none" xmlns="http://www.w3.org/2000/svg">
<path d="M13.885 17.4998L10.87 6.20481L7.855 17.4998H4.39L0.25 1.34481H3.58L6.19 12.3023L9.16 1.34481H12.6475L15.5275 12.3473L18.16 1.34481H21.5125L17.35 17.4998H13.885Z" fill="#0A0D12"/>
<path d="M25.8938 2.69481C25.8938 3.75231 25.0388 4.53981 23.8013 4.53981C22.5863 4.53981 21.7313 3.75231 21.7313 2.69481C21.7313 1.59231 22.5863 0.80481 23.8013 0.80481C25.0388 0.80481 25.8938 1.59231 25.8938 2.69481ZM25.3988 17.4998H22.2713V5.48481H25.3988V17.4998Z" fill="#0A0D12"/>
<path d="M30.432 17.4998H27.282V1.34481H30.432V17.4998Z" fill="#0A0D12"/>
<path d="M31.5491 11.4923C31.5491 7.93731 33.6416 5.25981 36.8816 5.25981C38.3216 5.25981 39.5366 5.88981 40.4366 7.03731V1.34481H43.5416V17.4998H40.6841V15.7673C39.7391 17.0273 38.4341 17.7248 36.8816 17.7248C33.6416 17.7248 31.5491 15.0023 31.5491 11.4923ZM34.7666 11.4923C34.7666 13.7423 36.0491 14.9348 37.5791 14.9348C39.1316 14.9348 40.4141 13.7198 40.4141 11.4473C40.4141 9.17481 39.1091 8.02731 37.5791 8.02731C36.0491 8.02731 34.7666 9.19731 34.7666 11.4923Z" fill="#0A0D12"/>
<path d="M50.4957 17.7248C47.0307 17.7248 44.6457 15.1598 44.6457 11.4923C44.6457 7.89231 47.1207 5.25981 50.4957 5.25981C53.6232 5.25981 55.9407 7.37481 56.3232 10.6148H53.0382C52.8807 9.01731 51.9132 8.02731 50.4957 8.02731C48.8757 8.02731 47.8407 9.35481 47.8407 11.4923C47.8407 13.6523 48.8532 14.9573 50.4957 14.9573C51.9357 14.9573 52.8582 14.0123 53.0382 12.3698H56.3232C55.9632 15.6773 53.7132 17.7248 50.4957 17.7248Z" fill="#0A0D12"/>
<path d="M60.5586 11.6723V17.4998H57.4311V5.48481H60.3111V7.80231C61.1886 6.27231 63.0561 5.34981 64.9911 5.34981V8.58981C62.3361 8.38731 60.5586 9.01731 60.5586 11.6723Z" fill="#0A0D12"/>
<path d="M72.8707 17.4998V16.0148C72.0832 17.1398 70.8907 17.7248 69.2482 17.7248C66.7507 17.7248 65.0857 16.2623 65.0857 14.0123C65.0857 11.6723 66.9757 10.4123 70.4857 10.4123C71.1607 10.4123 71.7457 10.4573 72.4882 10.5473V9.82731C72.4882 8.47731 71.7232 7.68981 70.4182 7.68981C69.0682 7.68981 68.2582 8.47731 68.1457 9.82731H65.3332C65.5132 7.05981 67.5157 5.25981 70.4182 5.25981C73.5682 5.25981 75.4132 6.99231 75.4132 9.93981V17.4998H72.8707ZM68.0332 13.9223C68.0332 14.9348 68.7532 15.5648 69.9232 15.5648C71.5207 15.5648 72.4882 14.6873 72.4882 13.2923V12.4373C71.7457 12.3248 71.2282 12.2798 70.6882 12.2798C68.9107 12.2798 68.0332 12.8423 68.0332 13.9223Z" fill="#0A0D12"/>
<path d="M81.285 17.4998H78.18V8.16231H75.75V5.48481H78.18V4.83231C78.18 2.44731 79.4625 1.09731 81.96 1.09731C82.725 1.09731 83.3775 1.23231 83.895 1.45731V3.93231C83.5575 3.79731 83.1075 3.72981 82.7025 3.72981C81.8475 3.72981 81.285 4.06731 81.285 4.89981V5.48481H84.4125V8.16231H81.285V17.4998Z" fill="#0A0D12"/>
<path d="M93.2265 14.4623V17.1848C92.4615 17.5673 91.7415 17.7248 90.819 17.7248C88.344 17.7248 86.7915 16.3073 86.7915 13.6073V8.16231H84.3615V5.48481H86.7915V1.92981H89.8965V5.48481H93.339V8.16231H89.8965V12.8873C89.8965 14.2823 90.5265 14.8448 91.6515 14.8448C92.2365 14.8448 92.7765 14.7098 93.2265 14.4623Z" fill="#0A0D12"/>
<path d="M99.305 17.7023C95.705 17.7023 93.2975 15.2048 93.2975 11.4473C93.2975 7.86981 95.795 5.25981 99.26 5.25981C103.063 5.25981 105.583 8.34231 105.02 12.2573H96.4925C96.695 14.2148 97.64 15.2948 99.2375 15.2948C100.61 15.2948 101.533 14.6198 101.893 13.4273H104.998C104.323 16.1498 102.23 17.7023 99.305 17.7023ZM99.1925 7.55481C97.73 7.55481 96.8075 8.49981 96.5375 10.2773H101.713C101.623 8.61231 100.678 7.55481 99.1925 7.55481Z" fill="#0A0D12"/>
<path d="M105.208 11.4923C105.208 7.93731 107.3 5.25981 110.54 5.25981C111.98 5.25981 113.195 5.88981 114.095 7.03731V1.34481H117.2V17.4998H114.343V15.7673C113.398 17.0273 112.093 17.7248 110.54 17.7248C107.3 17.7248 105.208 15.0023 105.208 11.4923ZM108.425 11.4923C108.425 13.7423 109.708 14.9348 111.238 14.9348C112.79 14.9348 114.073 13.7198 114.073 11.4473C114.073 9.17481 112.768 8.02731 111.238 8.02731C109.708 8.02731 108.425 9.19731 108.425 11.4923Z" fill="#0A0D12"/>
</svg>
